<svg width="24" height="24" viewBox="0 0 24 24" fill="none" xmlns="http://www.w3.org/2000/svg">
<path d="M17.5001 12.0001C17.5001 11.4485 17.0546 11.003 16.5031 11.003L12.997 11.0031L12.997 7.49702C12.997 6.94548 12.5516 6.5 12 6.5C11.4485 6.5 11.003 6.94548 11.003 7.49702L11.003 11.0031L7.5 10.9959C6.94846 10.9959 6.50298 11.4414 6.50298 11.9929C6.50298 12.5445 6.94846 12.99 7.5 12.9899L11.003 12.9971L11.003 16.503C11.003 17.0545 11.4485 17.5 12 17.5C12.5516 17.5 12.997 17.0545 12.997 16.503L12.997 12.9971L16.5101 12.99C17.0475 12.99 17.5001 12.5375 17.5001 12.0001Z" fill="currentColor" />
</svg>
