<svg width="24" height="24" viewBox="0 0 24 24" fill="none" xmlns="http://www.w3.org/2000/svg">
<path fill-rule="evenodd" clip-rule="evenodd" d="M7.38644 3.91999C7.95201 3.33217 8.73256 3 9.54828 3H21.6C22.9255 3 24 4.07452 24 5.4V18.6C24 19.9255 22.9255 21 21.6 21H9.54828C8.73256 21 7.95201 20.6678 7.38644 20.08L1.61355 14.08C0.496004 12.9185 0.496004 11.0815 1.61355 9.91999L7.38644 3.91999ZM9.54828 5C9.27637 5 9.01619 5.11072 8.82767 5.30666L3.05478 11.3067C2.68226 11.6938 2.68226 12.3062 3.05478 12.6933L8.82767 18.6933C9.01619 18.8893 9.27637 19 9.54828 19H21.6C21.8209 19 22 18.8209 22 18.6V5.4C22 5.17909 21.8209 5 21.6 5H9.54828Z" fill="currentColor" />
<path d="M17.4825 16.3C17.8725 16.69 18.5025 16.69 18.8925 16.3C19.2725 15.91 19.2725 15.27 18.8925 14.89L16.0025 12L18.8925 9.10997C19.2825 8.71997 19.2825 8.08997 18.8925 7.69997C18.5025 7.30997 17.8725 7.30997 17.4825 7.69997L14.5925 10.59L11.7025 7.69997C11.3125 7.30997 10.6825 7.30997 10.2925 7.69997C9.9025 8.08997 9.9025 8.71997 10.2925 9.10997L13.1825 12L10.2925 14.89C9.9025 15.28 9.9025 15.91 10.2925 16.3C10.6825 16.69 11.3125 16.69 11.7025 16.3L14.5925 13.41L17.4825 16.3Z" fill="currentColor" />
</svg>
