<svg width="24" height="24" viewBox="0 0 24 24" fill="none" xmlns="http://www.w3.org/2000/svg">
<path fill-rule="evenodd" clip-rule="evenodd" d="M12.7313 4.4625H19.0688C19.4724 4.4625 19.8 4.7901 19.8 5.19375C19.8 5.5974 19.4724 5.925 19.0688 5.925H4.93126C4.52761 5.925 4.20001 5.5974 4.20001 5.19375C4.20001 4.7901 4.52761 4.4625 4.93126 4.4625H11.2688V3.73125C11.2688 3.3276 11.5964 3 12 3C12.4037 3 12.7313 3.3276 12.7313 3.73125V4.4625ZM6.27299 18.7772L5.21609 7.14348H18.7842L17.7273 18.7772C17.6356 19.7814 16.7942 20.5507 15.7851 20.5507H8.21519C7.20607 20.5507 6.36464 19.7814 6.27299 18.7772ZM13.9502 17.9294C14.3539 17.9294 14.6815 17.6018 14.6815 17.1982V10.3732C14.6815 9.96954 14.3539 9.64194 13.9502 9.64194C13.5466 9.64194 13.219 9.96954 13.219 10.3732V17.1982C13.219 17.6018 13.5466 17.9294 13.9502 17.9294ZM10.0501 17.9294C10.4537 17.9294 10.7813 17.6018 10.7813 17.1982V10.3732C10.7813 9.96954 10.4537 9.64194 10.0501 9.64194C9.64643 9.64194 9.31883 9.96954 9.31883 10.3732V17.1982C9.31883 17.6018 9.64643 17.9294 10.0501 17.9294Z" fill="currentColor" />
</svg>
