<svg width="24" height="24" viewBox="0 0 24 24" fill="none" xmlns="http://www.w3.org/2000/svg">
<circle cx="15.5" cy="5" r="2.5" transform="rotate(90 15.5 5)" fill="currentColor" />
<path fill-rule="evenodd" clip-rule="evenodd" d="M21 6C21.5523 6 22 5.55228 22 5C22 4.44772 21.5523 4 21 4L18.8551 4C18.9494 4.31685 19 4.65251 19 5C19 5.34749 18.9494 5.68315 18.8551 6L21 6ZM12.1449 6C12.0506 5.68315 12 5.34749 12 5C12 4.65251 12.0506 4.31686 12.1449 4L3 4C2.44772 4 2 4.44772 2 5C2 5.55229 2.44772 6 3 6L12.1449 6Z" fill="currentColor" />
<circle cx="13.5" cy="19" r="2.5" transform="rotate(90 13.5 19)" fill="currentColor" />
<path fill-rule="evenodd" clip-rule="evenodd" d="M21 20C21.5523 20 22 19.5523 22 19C22 18.4477 21.5523 18 21 18L16.8551 18C16.9494 18.3169 17 18.6525 17 19C17 19.3475 16.9494 19.6831 16.8551 20L21 20ZM10.1449 20C10.0506 19.6831 10 19.3475 10 19C10 18.6525 10.0506 18.3169 10.1449 18L3 18C2.44772 18 2 18.4477 2 19C2 19.5523 2.44772 20 3 20L10.1449 20Z" fill="currentColor" />
<circle cx="2.5" cy="2.5" r="2.5" transform="matrix(4.37114e-08 1 1 -4.37114e-08 6 9.5)" fill="currentColor" />
<path fill-rule="evenodd" clip-rule="evenodd" d="M3 13C2.44772 13 2 12.5523 2 12C2 11.4477 2.44772 11 3 11L5.14494 11C5.05064 11.3169 5 11.6525 5 12C5 12.3475 5.05064 12.6831 5.14494 13L3 13ZM11.8551 13C11.9494 12.6831 12 12.3475 12 12C12 11.6525 11.9494 11.3169 11.8551 11L21 11C21.5523 11 22 11.4477 22 12C22 12.5523 21.5523 13 21 13L11.8551 13Z" fill="currentColor" />
</svg>
