<svg width="24" height="24" viewBox="0 0 24 24" fill="none" xmlns="http://www.w3.org/2000/svg">
<path fill-rule="evenodd" clip-rule="evenodd" d="M12.0021 15.9879L16.3884 18.6408L15.2263 13.6547L19.1069 10.2923L14.0011 9.85885L11.9992 5.13472L9.99784 9.84694L4.89314 10.2803L8.77373 13.6427L7.61066 18.6334L12.0021 15.9879ZM20.5423 9.04851C20.542 9.04883 20.5427 9.04819 20.5423 9.04851V9.04851ZM18.768 20.04C19.008 21.072 17.892 21.888 16.98 21.336L12 18.324L7.02004 21.324C6.10804 21.876 4.99204 21.06 5.23204 20.028L6.55204 14.364L2.14804 10.548C1.34404 9.85203 1.77604 8.53203 2.83204 8.44803L8.62804 7.95603L10.896 2.61602C11.304 1.64402 12.696 1.64402 13.104 2.61602L15.372 7.96803L21.168 8.46003C22.224 8.54403 22.656 9.86403 21.852 10.56L17.448 14.376L18.768 20.04ZM18.0151 19.6247C18.0146 19.6244 18.0156 19.625 18.0151 19.6247V19.6247Z" fill="currentColor" />
</svg>
