<svg width="24" height="24" viewBox="0 0 24 24" fill="none" xmlns="http://www.w3.org/2000/svg">
<path fill-rule="evenodd" clip-rule="evenodd" d="M2.40002 12C2.40002 6.70082 6.70082 2.40002 12 2.40002C17.2992 2.40002 21.6 6.70082 21.6 12C21.6 17.2992 17.2992 21.6 12 21.6C6.70082 21.6 2.40002 17.2992 2.40002 12ZM15.4843 18.2268L12.014 16.2054L8.5436 18.2268C7.86384 18.6203 7.04096 18.0121 7.21985 17.2429L8.13216 13.3075L5.10901 10.6958C4.51869 10.177 4.8228 9.19313 5.60989 9.12158L9.59901 8.7817L11.1732 5.09668C11.4773 4.38114 12.5148 4.38114 12.8189 5.09668L14.3931 8.7817L18.3822 9.12158C19.1693 9.19313 19.4913 10.177 18.8831 10.6958L15.86 13.3075L16.7723 17.2429C16.9691 18.0121 16.1462 18.6203 15.4843 18.2268Z" fill="currentColor" />
</svg>
