<svg width="24" height="24" viewBox="0 0 24 24" fill="none" xmlns="http://www.w3.org/2000/svg">
<path fill-rule="evenodd" clip-rule="evenodd" d="M12 2C17.5229 2 22 6.47715 22 12C22 17.5228 17.5229 22 12 22C6.47718 22 2.00003 17.5228 2.00003 12C2.00003 6.47715 6.47718 2 12 2ZM8.12755 14.6275L11.2076 17.7075C11.5976 18.0975 12.2276 18.0975 12.6276 17.7075L15.7076 14.6275C16.0976 14.2375 16.0976 13.5975 15.7076 13.2075C15.3176 12.8175 14.6876 12.8175 14.2976 13.2075L13.0001 14.505L13.0001 7C13.0001 6.44771 12.5523 6 12.0001 6C11.4478 6 11.0001 6.44771 11.0001 7L11.0001 14.67L9.53755 13.2075C9.14755 12.8175 8.51755 12.8175 8.12755 13.2075C7.73755 13.5975 7.73755 14.2375 8.12755 14.6275Z" fill="currentColor" />
</svg>
