<svg width="24" height="24" viewBox="0 0 24 24" fill="none" xmlns="http://www.w3.org/2000/svg">
<path fill-rule="evenodd" clip-rule="evenodd" d="M12 22C17.5228 22 22 17.5228 22 12C22 6.47715 17.5228 2 12 2C6.47715 2 2 6.47715 2 12C2 17.5228 6.47715 22 12 22ZM8.12752 9.37252L11.2075 6.29252C11.5975 5.90252 12.2275 5.90252 12.6275 6.29252L15.7075 9.37252C16.0975 9.76252 16.0975 10.4025 15.7075 10.7925C15.3175 11.1825 14.6875 11.1825 14.2975 10.7925L13 9.49502V17C13 17.5523 12.5523 18 12 18C11.4477 18 11 17.5523 11 17V9.33002L9.53752 10.7925C9.14752 11.1825 8.51752 11.1825 8.12752 10.7925C7.73752 10.4025 7.73752 9.76252 8.12752 9.37252Z" fill="currentColor" />
</svg>
