<svg width="24" height="24" viewBox="0 0 24 24" fill="none" xmlns="http://www.w3.org/2000/svg">
<path fill-rule="evenodd" clip-rule="evenodd" d="M12 22C17.5228 22 22 17.5228 22 12C22 6.47715 17.5228 2 12 2C6.47715 2 2 6.47715 2 12C2 17.5228 6.47715 22 12 22ZM9.29002 11.29L12.37 8.21002C12.76 7.82002 13.4 7.82002 13.79 8.21002C14.18 8.60002 14.18 9.23002 13.79 9.62002L11.41 12L13.79 14.38C14.18 14.77 14.18 15.4 13.79 15.79C13.4 16.18 12.76 16.18 12.37 15.79L9.29002 12.71C8.90002 12.31 8.90002 11.68 9.29002 11.29Z" fill="currentColor" />
</svg>
