<svg width="24" height="24" viewBox="0 0 24 24" fill="none" xmlns="http://www.w3.org/2000/svg">
<path fill-rule="evenodd" clip-rule="evenodd" d="M12.0001 22.0001C17.5229 22.0001 22.0001 17.5229 22.0001 12.0001C22.0001 6.47721 17.5229 2.00006 12.0001 2.00006C6.47721 2.00006 2.00006 6.47721 2.00006 12.0001C2.00006 17.5229 6.47721 22.0001 12.0001 22.0001ZM14.7901 11.29L11.7101 8.21004C11.3201 7.82004 10.6801 7.82004 10.2901 8.21004C9.90006 8.60004 9.90006 9.23004 10.2901 9.62004L12.6701 12L10.2901 14.38C9.90006 14.77 9.90006 15.4 10.2901 15.79C10.6801 16.18 11.3201 16.18 11.7101 15.79L14.7901 12.71C15.1801 12.31 15.1801 11.68 14.7901 11.29Z" fill="currentColor" />
</svg>
