<svg width="24" height="24" viewBox="0 0 24 24" fill="none" xmlns="http://www.w3.org/2000/svg">
<path d="M20.6198 6.97187L17.8298 4.18187C17.5198 3.86187 16.9798 4.08187 16.9798 4.53187V6.32187L3.96985 6.32187C3.41985 6.32187 2.96985 6.77187 2.96985 7.32187C2.96985 7.87187 3.41985 8.32187 3.96985 8.32187L16.9798 8.32187V10.1119C16.9798 10.5619 17.5198 10.7819 17.8298 10.4619L20.6198 7.67187C20.8098 7.48187 20.8098 7.16187 20.6198 6.97187ZM6.95959 17.6703H19.9696C20.5196 17.6703 20.9696 17.2203 20.9696 16.6703C20.9696 16.1203 20.5196 15.6703 19.9696 15.6703H6.95959L6.95959 13.8803C6.95959 13.4303 6.41959 13.2103 6.10959 13.5303L3.32959 16.3203C3.13959 16.5203 3.13959 16.8303 3.32959 17.0303L6.10959 19.8203C6.41959 20.1403 6.95959 19.9103 6.95959 19.4703V17.6703Z" fill="currentColor" />
</svg>
