<svg width="24" height="24" viewBox="0 0 24 24" fill="none" xmlns="http://www.w3.org/2000/svg">
<path d="M9 12C9 13.66 10.34 15 12 15C13.66 15 15 13.66 15 12C15 10.34 13.66 9 12 9C10.34 9 9 10.34 9 12Z" fill="currentColor" />
<path d="M12 4C14.33 4 16.42 5.02 17.88 6.62L16.35 8.15C16.04 8.46 16.26 9 16.71 9L21 9C21.28 9 21.5 8.78 21.5 8.5V4.21C21.5 3.76 20.96 3.54 20.65 3.86L19.3 5.2C17.48 3.24 14.89 2 12 2C7.25001 2 3.27001 5.32 2.25001 9.76C2.11001 10.39 2.58001 11 3.23001 11C3.70001 11 4.10001 10.67 4.21001 10.21C5.02001 6.66 8.20001 4 12 4ZM12 22C16.75 22 20.73 18.68 21.75 14.24C21.89 13.61 21.42 13 20.77 13C20.3 13 19.9 13.33 19.79 13.79C18.98 17.34 15.8 20 12 20C9.67001 20 7.58001 18.98 6.12001 17.38L7.65001 15.85C7.96001 15.54 7.74001 15 7.29001 15H3.00001C2.72001 15 2.50001 15.22 2.50001 15.5L2.50001 19.79C2.50001 20.24 3.04001 20.46 3.35001 20.14L4.70001 18.8C6.52001 20.76 9.11001 22 12 22Z" fill="currentColor" />
</svg>
