<svg width="24" height="24" viewBox="0 0 24 24" fill="none" xmlns="http://www.w3.org/2000/svg">
<path d="M6.94153 3.34991L4.15153 6.1399C3.83153 6.4499 4.05153 6.9899 4.50153 6.9899H6.29153V19.9999C6.29153 20.5499 6.74153 20.9999 7.29153 20.9999C7.84153 20.9999 8.29153 20.5499 8.29153 19.9999V6.9899H10.0815C10.5315 6.9899 10.7515 6.4499 10.4315 6.1399L7.64153 3.34991C7.45153 3.15991 7.13153 3.15991 6.94153 3.34991ZM17.64 17.0101V4.00012C17.64 3.45012 17.19 3.00012 16.64 3.00012C16.09 3.00012 15.64 3.45012 15.64 4.00012V17.0101H13.85C13.4 17.0101 13.18 17.5501 13.5 17.8601L16.29 20.6401C16.49 20.8301 16.8 20.8301 17 20.6401L19.79 17.8601C20.11 17.5501 19.88 17.0101 19.44 17.0101H17.64Z" fill="currentColor" />
</svg>
