<svg width="24" height="24" viewBox="0 0 24 24" fill="none" xmlns="http://www.w3.org/2000/svg">
<path d="M6.69997 18.29C7.08997 18.68 7.71997 18.68 8.10997 18.29L12 14.42L15.88 18.3C16.27 18.69 16.9 18.69 17.29 18.3C17.68 17.91 17.68 17.28 17.29 16.89L12.7 12.3C12.31 11.91 11.68 11.91 11.29 12.3L6.69997 16.88C6.30997 17.27 6.30997 17.9 6.69997 18.29Z" fill="currentColor" />
<path d="M6.69997 11.7C7.08997 12.09 7.71997 12.09 8.10997 11.7L12 7.82998L15.88 11.71C16.27 12.1 16.9 12.1 17.29 11.71C17.68 11.32 17.68 10.69 17.29 10.3L12.7 5.70998C12.31 5.31998 11.68 5.31998 11.29 5.70998L6.69997 10.29C6.30997 10.68 6.30997 11.31 6.69997 11.7Z" fill="currentColor" />
</svg>
