<svg width="24" height="24" viewBox="0 0 24 24" fill="none" xmlns="http://www.w3.org/2000/svg">
<path d="M5.69997 6.71029C5.30997 7.10029 5.30997 7.73029 5.69997 8.12029L9.57997 12.0003L5.69997 15.8803C5.30997 16.2703 5.30997 16.9003 5.69997 17.2903C6.08997 17.6803 6.71997 17.6803 7.10997 17.2903L11.7 12.7003C12.09 12.3103 12.09 11.6803 11.7 11.2903L7.11997 6.71029C6.72997 6.32029 6.08997 6.32029 5.69997 6.71029Z" fill="currentColor" />
<path d="M12.29 6.71002C11.9 7.10002 11.9 7.73002 12.29 8.12002L16.17 12L12.29 15.88C11.9 16.27 11.9 16.9 12.29 17.29C12.68 17.68 13.31 17.68 13.7 17.29L18.29 12.7C18.68 12.31 18.68 11.68 18.29 11.29L13.7 6.70002C13.32 6.32002 12.68 6.32002 12.29 6.71002Z" fill="currentColor" />
</svg>
