<svg width="24" height="24" viewBox="0 0 24 24" fill="none" xmlns="http://www.w3.org/2000/svg">
<path d="M17.29 5.70997C16.9 5.31997 16.27 5.31997 15.88 5.70997L12 9.57997L8.10997 5.69997C7.71997 5.30997 7.08997 5.30997 6.69997 5.69997C6.30997 6.08997 6.30997 6.71997 6.69997 7.10997L11.29 11.7C11.68 12.09 12.31 12.09 12.7 11.7L17.29 7.10997C17.68 6.72997 17.68 6.09997 17.29 5.70997Z" fill="currentColor" />
<path d="M17.29 12.3C16.9 11.91 16.27 11.91 15.88 12.3L12 16.17L8.11998 12.29C7.72998 11.9 7.09998 11.9 6.70998 12.29C6.31998 12.68 6.31998 13.31 6.70998 13.7L11.3 18.29C11.69 18.68 12.32 18.68 12.71 18.29L17.3 13.7C17.68 13.32 17.68 12.69 17.29 12.3Z" fill="currentColor" />
</svg>
