<svg width="24" height="24" viewBox="0 0 24 24" fill="none" xmlns="http://www.w3.org/2000/svg">
<path fill-rule="evenodd" clip-rule="evenodd" d="M5 2H19C19.55 2 20 2.45 20 3V12.3345C19.3926 12.1881 18.7179 12.0848 18 12.0346V4H6V20H11.5V22H5C4.45 22 4 21.55 4 21V3C4 2.45 4.45 2 5 2ZM11 10.5V12C11 12.55 11.45 13 12 13C12.55 13 13 12.55 13 12V10.5H14.5C15.05 10.5 15.5 10.05 15.5 9.5C15.5 8.95 15.05 8.5 14.5 8.5H13V7C13 6.45 12.55 6 12 6C11.45 6 11 6.45 11 7V8.5H9.5C8.95 8.5 8.5 8.95 8.5 9.5C8.5 10.05 8.95 10.5 9.5 10.5H11ZM22.2 16.2667C22.2 15.5066 21.7976 14.9569 21.4472 14.6347C21.0981 14.3138 20.6814 14.0983 20.3012 13.9505C19.5308 13.6509 18.5752 13.5 17.6 13.5C16.6248 13.5 15.6692 13.6509 14.8988 13.9505C14.5186 14.0983 14.1019 14.3138 13.7528 14.6347C13.4024 14.9569 13 15.5066 13 16.2667V20.9333C13 21.6934 13.4024 22.2431 13.7528 22.5653C14.1019 22.8862 14.5186 23.1017 14.8988 23.2495C15.6692 23.5491 16.6248 23.7 17.6 23.7C18.5752 23.7 19.5308 23.5491 20.3012 23.2495C20.6814 23.1017 21.0981 22.8862 21.4472 22.5653C21.7976 22.2431 22.2 21.6934 22.2 20.9333V16.2667ZM20.6 17.5203V18.6C20.6 19.1523 19.2569 19.6 17.6 19.6C15.9431 19.6 14.6 19.1523 14.6 18.6V17.5203C14.7816 17.6157 14.9735 17.6928 15.1625 17.7558C15.8323 17.9791 16.694 18.1 17.6 18.1C18.506 18.1 19.3677 17.9791 20.0375 17.7558C20.2265 17.6928 20.4184 17.6157 20.6 17.5203ZM20.0375 20.2558C20.2265 20.1928 20.4184 20.1157 20.6 20.0203V20.9333C20.6 21.5777 19.2569 22.1 17.6 22.1C15.9431 22.1 14.6 21.5777 14.6 20.9333V20.0203C14.7816 20.1157 14.9735 20.1928 15.1625 20.2558C15.8323 20.4791 16.694 20.6 17.6 20.6C18.506 20.6 19.3677 20.4791 20.0375 20.2558ZM20.5913 16.1769C20.4734 15.5745 19.1792 15.1 17.6 15.1C16.0208 15.1 14.7266 15.5745 14.6087 16.1769C14.7266 16.6933 16.0208 17.1 17.6 17.1C19.1792 17.1 20.4734 16.6933 20.5913 16.1769Z" fill="currentColor" />
</svg>
