<svg width="24" height="24" viewBox="0 0 24 24" fill="none" xmlns="http://www.w3.org/2000/svg">
<path d="M19 17V14C19 13.45 18.55 13 18 13C17.45 13 17 13.45 17 14V17H14C13.45 17 13 17.45 13 18C13 18.55 13.45 19 14 19H17V22C17 22.55 17.45 23 18 23C18.55 23 19 22.55 19 22V19H22C22.55 19 23 18.55 23 18C23 17.45 22.55 17 22 17H19Z" fill="currentColor" />
<path d="M14 11H8C7.45 11 7 11.45 7 12C7 12.55 7.45 13 8 13H14C14.55 13 15 12.55 15 12C15 11.45 14.55 11 14 11ZM16 7H8C7.45 7 7 7.45 7 8C7 8.55 7.45 9 8 9H16C16.55 9 17 8.55 17 8C17 7.45 16.55 7 16 7ZM8 17H10C10.55 17 11 16.55 11 16C11 15.45 10.55 15 10 15H8C7.45 15 7 15.45 7 16C7 16.55 7.45 17 8 17Z" fill="currentColor" />
<path fill-rule="evenodd" clip-rule="evenodd" d="M3 4C3 3.44772 3.44772 3 4 3H20C20.5523 3 21 3.44772 21 4V10C21 10.5523 20.5523 11 20 11C19.4477 11 19 10.5523 19 10V5H5V19H10C10.5523 19 11 19.4477 11 20C11 20.5523 10.5523 21 10 21H4C3.44772 21 3 20.5523 3 20V4Z" fill="currentColor" />
</svg>
