<svg width="24" height="24" viewBox="0 0 24 24" fill="none" xmlns="http://www.w3.org/2000/svg">
<path fill-rule="evenodd" clip-rule="evenodd" d="M14.58 2.58L19.41 7.41C19.79 7.79 20 8.3 20 8.83V20C20 21.1 19.1 22 18 22H10V17C11.6569 17 13 15.6569 13 14V13C13 11.3431 11.6569 10 10 10H4.00625L4.01 4C4.01 2.9 4.9 2 6 2H13.17C13.7 2 14.21 2.21 14.58 2.58ZM13 8C13 8.55 13.45 9 14 9H18.5L13 3.5V8Z" fill="currentColor" />
<path d="M3.5 15H5V20.5C5 21.33 5.67 22 6.5 22C7.33 22 8 21.33 8 20.5V15H9.5C10.33 15 11 14.33 11 13.5C11 12.67 10.33 12 9.5 12H3.5C2.67 12 2 12.67 2 13.5C2 14.33 2.67 15 3.5 15Z" fill="currentColor" />
</svg>
