<svg width="24" height="24" viewBox="0 0 24 24" fill="none" xmlns="http://www.w3.org/2000/svg">
<path fill-rule="evenodd" clip-rule="evenodd" d="M7 5H5V19H8.58152C8.87526 19.7257 9.27238 20.3984 9.75463 21H5C3.9 21 3 20.1 3 19V5C3 3.9 3.9 3 5 3H9.18C9.6 1.84 10.7 1 12 1C13.3 1 14.4 1.84 14.82 3H19C20.1 3 21 3.9 21 5V9.75463C20.3984 9.27238 19.7257 8.87526 19 8.58152V5H17V6C17 7.1 16.1 8 15 8H9C7.9 8 7 7.1 7 6V5ZM13 4C13 3.45 12.55 3 12 3C11.45 3 11 3.45 11 4C11 4.55 11.45 5 12 5C12.55 5 13 4.55 13 4Z" fill="currentColor" />
<path fill-rule="evenodd" clip-rule="evenodd" d="M16 22C19.3137 22 22 19.3137 22 16C22 12.6863 19.3137 10 16 10C12.6863 10 10 12.6863 10 16C10 19.3137 12.6863 22 16 22ZM17.75 13.75C17.75 12.7856 16.9644 12 16 12C15.0356 12 14.25 12.7856 14.25 13.75C14.25 14.7144 15.0356 15.5 16 15.5C16.9644 15.5 17.75 14.7144 17.75 13.75ZM12.5 18.6111V19.1944H19.5V18.6111C19.5 17.4444 17.1667 16.8611 16 16.8611C14.8333 16.8611 12.5 17.4444 12.5 18.6111Z" fill="currentColor" />
</svg>
