<svg width="24" height="24" viewBox="0 0 24 24" fill="none" xmlns="http://www.w3.org/2000/svg">
<path d="M15 8H9C8.45 8 8 7.55 8 7C8 6.45 8.45 6 9 6H15C15.55 6 16 6.45 16 7C16 7.55 15.55 8 15 8Z" fill="currentColor" />
<path d="M15 12H9C8.45 12 8 11.55 8 11C8 10.45 8.45 10 9 10H15C15.55 10 16 10.45 16 11C16 11.55 15.55 12 15 12Z" fill="currentColor" />
<path d="M5 2H19C19.55 2 20 2.45 20 3V21C20 21.55 19.55 22 19 22H17.2V20H18V4H6V20H11V22H5C4.45 22 4 21.55 4 21V3C4 2.45 4.45 2 5 2Z" fill="currentColor" />
<path fill-rule="evenodd" clip-rule="evenodd" d="M16.0517 19.8081C16.6345 19.2747 17 18.5078 17 17.6554C17 16.0441 15.6938 14.7379 14.0825 14.7379C12.4712 14.7379 11.165 16.0441 11.165 17.6554C11.165 18.5662 11.5824 19.3796 12.2363 19.9146V22.3277C12.2363 22.6541 12.2363 22.8173 12.3146 22.9013C12.3576 22.9474 12.4144 22.9784 12.4765 22.9895C12.5896 23.0098 12.7267 22.9214 13.001 22.7446L14.1067 22.0317L15.2944 22.7681C15.5668 22.937 15.703 23.0214 15.8148 23C15.8762 22.9882 15.9323 22.9571 15.9746 22.911C16.0517 22.8273 16.0517 22.667 16.0517 22.3465V19.8081ZM14.0825 19.1142C14.8881 19.1142 15.5413 18.4611 15.5413 17.6554C15.5413 16.8498 14.8881 16.1967 14.0825 16.1967C13.2769 16.1967 12.6237 16.8498 12.6237 17.6554C12.6237 18.4611 13.2769 19.1142 14.0825 19.1142Z" fill="currentColor" />
</svg>
