<svg width="24" height="24" viewBox="0 0 24 24" fill="none" xmlns="http://www.w3.org/2000/svg">
<path d="M2 4C2 2.89543 2.89543 2 4 2H15C16.1046 2 17 2.89543 17 4V4.84141C16.3744 4.62031 15.7013 4.5 15 4.5V4H4V19H15V16.5C15.7013 16.5 16.3744 16.3797 17 16.1586V22L15.5 20.5L14 22L12.5 20.5L11 22L9.5 20.5L8 22L6.5 20.5L5 22L3.5 20.5L2 22V4Z" fill="currentColor" />
<path d="M20.2408 18.1508L18.0915 15.6433C18.6677 15.2962 19.1808 14.8551 19.6095 14.3411L21.7593 16.8492C22.1187 17.2685 22.0701 17.8998 21.6508 18.2593C21.2315 18.6187 20.6002 18.5701 20.2408 18.1508Z" fill="currentColor" />
<path fill-rule="evenodd" clip-rule="evenodd" d="M15 15.5C17.7614 15.5 20 13.2614 20 10.5C20 7.73858 17.7614 5.5 15 5.5C13.3642 5.5 11.9118 6.28555 10.9996 7.5H6C5.72386 7.5 5.5 7.72386 5.5 8C5.5 8.27614 5.72386 8.5 6 8.5H10.416C10.212 8.96712 10.0772 9.47145 10.0247 10H6C5.72386 10 5.5 10.2239 5.5 10.5C5.5 10.7761 5.72386 11 6 11H10.0247C10.0772 11.5285 10.212 12.0329 10.416 12.5H6C5.72386 12.5 5.5 12.7239 5.5 13C5.5 13.2761 5.72386 13.5 6 13.5H10.9996C11.9118 14.7144 13.3642 15.5 15 15.5ZM15 13.5C16.6569 13.5 18 12.1569 18 10.5C18 8.84315 16.6569 7.5 15 7.5C13.6938 7.5 12.5825 8.33481 12.1707 9.5H15C15.5523 9.5 16 9.94772 16 10.5C16 11.0523 15.5523 11.5 15 11.5H12.1707C12.5825 12.6652 13.6938 13.5 15 13.5Z" fill="currentColor" />
</svg>
