<svg width="24" height="24" viewBox="0 0 24 24" fill="none" xmlns="http://www.w3.org/2000/svg">
<path fill-rule="evenodd" clip-rule="evenodd" d="M3 4C1.89543 4 1 4.89543 1 6V19C1 20.1046 1.89543 21 3 21H11H12H21C22.1046 21 23 20.1046 23 19V6C23 4.89543 22.1046 4 21 4H12H11H3ZM12 6V19H20C20.5523 19 21 18.5523 21 18V7C21 6.44772 20.5523 6 20 6H12ZM4.75 9.5H10.25C10.66 9.5 11 9.84 11 10.25C11 10.66 10.66 11 10.25 11H4.75C4.34 11 4 10.66 4 10.25C4 9.84 4.34 9.5 4.75 9.5ZM4.75 12H10.25C10.66 12 11 12.34 11 12.75C11 13.16 10.66 13.5 10.25 13.5H4.75C4.34 13.5 4 13.16 4 12.75C4 12.34 4.34 12 4.75 12ZM10.25 14.5H4.75C4.34 14.5 4 14.84 4 15.25C4 15.66 4.34 16 4.75 16H10.25C10.66 16 11 15.66 11 15.25C11 14.84 10.66 14.5 10.25 14.5ZM13.75 9.5H19.25C19.66 9.5 20 9.84 20 10.25C20 10.66 19.66 11 19.25 11H13.75C13.34 11 13 10.66 13 10.25C13 9.84 13.34 9.5 13.75 9.5ZM13.75 12H19.25C19.66 12 20 12.34 20 12.75C20 13.16 19.66 13.5 19.25 13.5H13.75C13.34 13.5 13 13.16 13 12.75C13 12.34 13.34 12 13.75 12ZM19.25 14.5H13.75C13.34 14.5 13 14.84 13 15.25C13 15.66 13.34 16 13.75 16H19.25C19.66 16 20 15.66 20 15.25C20 14.84 19.66 14.5 19.25 14.5Z" fill="currentColor" />
</svg>
