<svg width="24" height="24" viewBox="0 0 24 24" fill="none" xmlns="http://www.w3.org/2000/svg">
<path d="M9 8H15C15.55 8 16 7.55 16 7C16 6.45 15.55 6 15 6H9C8.45 6 8 6.45 8 7C8 7.55 8.45 8 9 8ZM9 12H15C15.55 12 16 11.55 16 11C16 10.45 15.55 10 15 10H9C8.45 10 8 10.45 8 11C8 11.55 8.45 12 9 12ZM19 2L5 2C4.45 2 4 2.45 4 3V21C4 21.55 4.45 22 5 22H19C19.55 22 20 21.55 20 21V3C20 2.45 19.55 2 19 2ZM18 20H6V4H18V20Z" fill="currentColor" />
<path d="M16 15.5C16 16.3284 15.3284 17 14.5 17C13.6716 17 13 16.3284 13 15.5C13 14.6716 13.6716 14 14.5 14C15.3284 14 16 14.6716 16 15.5Z" fill="currentColor" />
</svg>
