<svg width="24" height="24" viewBox="0 0 24 24" fill="none" xmlns="http://www.w3.org/2000/svg">
<path d="M7.39997 9.5925H8.98997L8.99 15.5C8.99 16.05 9.44 16.5 9.99 16.5H13.99C14.54 16.5 14.99 16.05 14.99 15.5L14.99 9.5925H16.58C17.47 9.5925 17.92 8.5125 17.29 7.8825L12.7 3.2925C12.31 2.9025 11.68 2.9025 11.29 3.2925L6.69997 7.8825C6.06997 8.5125 6.50997 9.5925 7.39997 9.5925ZM5 20C5 20.55 5.45 21 6 21H18C18.55 21 19 20.55 19 20C19 19.45 18.55 19 18 19H6C5.45 19 5 19.45 5 20Z" fill="currentColor" />
</svg>
