<svg width="24" height="24" viewBox="0 0 24 24" fill="none" xmlns="http://www.w3.org/2000/svg">
<path fill-rule="evenodd" clip-rule="evenodd" d="M19 2H5C4.45 2 4 2.45 4 3V11C3.44772 11 3 11.4477 3 12V18C3 18.5523 3.44772 19 4 19L4 21C4 21.55 4.45 22 5 22H19C19.55 22 20 21.55 20 21V19C20.5523 19 21 18.5523 21 18V12C21 11.4477 20.5523 11 20 11V3C20 2.45 19.55 2 19 2ZM6 20V19H18V20H6ZM6 11H18V4H6V11ZM5.19795 18.004C4.92291 18.004 4.69995 17.781 4.69995 17.506V13C4.69995 12.4477 5.14767 12 5.69995 12H7.49995C7.74517 12 7.94395 12.1988 7.94395 12.444C7.94395 12.6892 7.74517 12.888 7.49995 12.888H5.69595V14.468H7.41595C7.66117 14.468 7.85995 14.6668 7.85995 14.912C7.85995 15.1572 7.66117 15.356 7.41595 15.356H5.69595V17.506C5.69595 17.781 5.47299 18.004 5.19795 18.004ZM9.79561 18.004C9.52057 18.004 9.29761 17.781 9.29761 17.506V12.498C9.29761 12.223 9.52057 12 9.79561 12C10.0706 12 10.2936 12.223 10.2936 12.498V17.506C10.2936 17.781 10.0706 18.004 9.79561 18.004ZM12.1687 17.004C12.1687 17.5563 12.6164 18.004 13.1687 18.004H14.4407C14.6859 18.004 14.8847 17.8052 14.8847 17.56C14.8847 17.3148 14.6859 17.116 14.4407 17.116H13.1647V12.498C13.1647 12.223 12.9417 12 12.6667 12C12.3917 12 12.1687 12.223 12.1687 12.498V17.004ZM17.2859 18.004C16.7336 18.004 16.2859 17.5563 16.2859 17.004V13C16.2859 12.4477 16.7336 12 17.2859 12H19.0859C19.3311 12 19.5299 12.1988 19.5299 12.444C19.5299 12.6892 19.3311 12.888 19.0859 12.888H17.2819V14.468H19.0019C19.2471 14.468 19.4459 14.6668 19.4459 14.912C19.4459 15.1572 19.2471 15.356 19.0019 15.356H17.2819V17.116H19.0859C19.3311 17.116 19.5299 17.3148 19.5299 17.56C19.5299 17.8052 19.3311 18.004 19.0859 18.004H17.2859Z" fill="currentColor" />
</svg>
