<svg width="24" height="24" viewBox="0 0 24 24" fill="none" xmlns="http://www.w3.org/2000/svg">
<path d="M20 6H12L10.59 4.59C10.21 4.21 9.7 4 9.17 4H4C2.9 4 2.01 4.9 2.01 6L2 18C2 19.1 2.9 20 4 20H20C21.1 20 22 19.1 22 18V8C22 6.9 21.1 6 20 6ZM14 15C14 15.5523 13.5523 16 13 16H7C6.44772 16 6 15.5523 6 15C6 14.4477 6.44772 14 7 14H13C13.5523 14 14 14.4477 14 15ZM18 11C18 11.5523 17.5523 12 17 12H7C6.44772 12 6 11.5523 6 11C6 10.4477 6.44772 10 7 10H17C17.5523 10 18 10.4477 18 11Z" fill="currentColor" />
</svg>
