<svg width="24" height="24" viewBox="0 0 24 24" fill="none" xmlns="http://www.w3.org/2000/svg">
<path fill-rule="evenodd" clip-rule="evenodd" d="M12 6H20C21.1 6 22 6.9 22 8V18C22 19.1 21.1 20 20 20H4C2.9 20 2 19.1 2 18L2.01 6C2.01 4.9 2.9 4 4 4H9.17C9.7 4 10.21 4.21 10.59 4.59L12 6ZM8.2925 13.8325L10.4125 15.9525C10.8025 16.3425 11.4425 16.3425 11.8225 15.9425L16.0625 11.7025C16.4525 11.3125 16.4525 10.6825 16.0625 10.2925C15.6725 9.9025 15.0425 9.9025 14.6525 10.2925L11.1125 13.8325L9.7025 12.4225C9.3125 12.0325 8.6825 12.0325 8.2925 12.4225C7.9025 12.8125 7.9025 13.4425 8.2925 13.8325Z" fill="currentColor" />
</svg>
