<svg width="24" height="24" viewBox="0 0 24 24" fill="none" xmlns="http://www.w3.org/2000/svg">
<path d="M17.5 11H15C14.45 11 14 10.55 14 10C14 9.45 14.45 9 15 9H17.5C18.05 9 18.5 9.45 18.5 10C18.5 10.55 18.05 11 17.5 11Z" fill="currentColor" />
<path d="M17.5 14.5H15C14.45 14.5 14 14.05 14 13.5C14 12.95 14.45 12.5 15 12.5H17.5C18.05 12.5 18.5 12.95 18.5 13.5C18.5 14.05 18.05 14.5 17.5 14.5Z" fill="currentColor" />
<path d="M17.5 7.5H15C14.45 7.5 14 7.05 14 6.5C14 5.95 14.45 5.5 15 5.5H17.5C18.05 5.5 18.5 5.95 18.5 6.5C18.5 7.05 18.05 7.5 17.5 7.5Z" fill="currentColor" />
<path d="M10 5.5H12V7.5H10V5.5Z" fill="currentColor" />
<path d="M10 9H12V11H10V9Z" fill="currentColor" />
<path d="M12 12.5H10V14.5H12V12.5Z" fill="currentColor" />
<path fill-rule="evenodd" clip-rule="evenodd" d="M6 3.5C6 2.67157 6.67157 2 7.5 2H20.5C21.3284 2 22 2.67157 22 3.5V16.5C22 17.3284 21.3284 18 20.5 18H7.5C6.67157 18 6 17.3284 6 16.5V3.5ZM8 4V16H20V4H8Z" fill="currentColor" />
<path d="M3 6C2.45 6 2 6.45 2 7V20C2 21.1 2.9 22 4 22H17C17.55 22 18 21.55 18 21C18 20.45 17.55 20 17 20H5C4.45 20 4 19.55 4 19V7C4 6.45 3.55 6 3 6Z" fill="currentColor" />
</svg>
