<svg width="24" height="24" viewBox="0 0 24 24" fill="none" xmlns="http://www.w3.org/2000/svg">
<path d="M6 2C4.89543 2 4 2.89543 4 4V20C4 21.1046 4.89543 22 6 22H9C9.55228 22 10 21.5523 10 21C10 20.4477 9.55228 20 9 20H6V4L13 4V9H18V11C18 11.5523 18.4477 12 19 12C19.5523 12 20 11.5523 20 11V8L14 2H6Z" fill="currentColor" />
<path fill-rule="evenodd" clip-rule="evenodd" d="M19.3026 19.8927L21.3026 21.8927C21.6926 22.2827 21.6826 22.9127 21.2926 23.3027C20.9026 23.6927 20.2826 23.6927 19.8926 23.3027L17.8926 21.3027C16.8826 21.8827 15.6726 22.2527 14.2426 21.8127C12.5226 21.2827 11.2026 19.7627 11.0226 17.9727C10.7426 15.0927 13.1026 12.7427 15.9726 13.0227C17.7726 13.1927 19.2826 14.5227 19.8126 16.2427C20.2526 17.6627 19.8826 18.8827 19.3026 19.8927ZM13.0026 17.4927C13.0026 18.8927 14.1026 19.9927 15.5026 19.9927C16.9026 19.9927 18.0026 18.8927 18.0026 17.4927C18.0026 16.0927 16.9026 14.9927 15.5026 14.9927C14.1026 14.9927 13.0026 16.0927 13.0026 17.4927Z" fill="currentColor" />
</svg>
