<svg width="24" height="24" viewBox="0 0 24 24" fill="none" xmlns="http://www.w3.org/2000/svg">
<path d="M12.4 8.2C12.4 7.53726 11.8627 7 11.2 7C10.5373 7 10 7.53726 10 8.2C10 8.86274 10.5373 9.4 11.2 9.4C11.8627 9.4 12.4 8.86274 12.4 8.2Z" fill="currentColor" />
<path d="M11.2 15.5C11.75 15.5 12.2 15.05 12.2 14.5V11.5C12.2 10.95 11.75 10.5 11.2 10.5C10.65 10.5 10.2 10.95 10.2 11.5V14.5C10.2 15.05 10.65 15.5 11.2 15.5Z" fill="currentColor" />
<path fill-rule="evenodd" clip-rule="evenodd" d="M17.0606 2.17194C17.3354 2.35797 17.5 2.66818 17.5 3V5.78948H19C19.5523 5.78948 20 6.23719 20 6.78948V21C20 21.5523 19.5523 22 19 22H6.42105C5.08394 22 4 20.9161 4 19.579V4.89474C4 4.62952 4.10536 4.37517 4.2929 4.18763C4.48044 4.00009 4.7348 3.89474 5.00002 3.89474C8.90553 3.89482 13.7737 3.01348 16.1286 2.07153C16.4367 1.94829 16.7859 1.98591 17.0606 2.17194ZM17.5 7.78948V17.6842C17.5 18.0812 17.2652 18.4406 16.9017 18.6C15.447 19.238 13.9973 19.6899 12.3195 20H18V7.78948H17.5ZM6 18.5588C10.4323 18.4439 13.0428 18.0016 15.5 17.0193V4.39948C12.9505 5.16296 9.25267 5.77005 6 5.87773V18.5588Z" fill="currentColor" />
</svg>
