<svg width="24" height="24" viewBox="0 0 24 24" fill="none" xmlns="http://www.w3.org/2000/svg">
<path d="M12.5 8H15.5C16.05 8 16.5 7.55 16.5 7C16.5 6.45 16.05 6 15.5 6H12.5C11.95 6 11.5 6.45 11.5 7C11.5 7.55 11.95 8 12.5 8ZM12.5 12H15.5C16.05 12 16.5 11.55 16.5 11C16.5 10.45 16.05 10 15.5 10H12.5C11.95 10 11.5 10.45 11.5 11C11.5 11.55 11.95 12 12.5 12ZM12.5 16H15.5C16.05 16 16.5 15.55 16.5 15C16.5 14.45 16.05 14 15.5 14H12.5C11.95 14 11.5 14.45 11.5 15C11.5 15.55 11.95 16 12.5 16ZM8 6H10V8H8V6ZM8 10H10V12H8V10ZM8 14H10V16H8V14ZM19 2L5 2C4.45 2 4 2.45 4 3V21C4 21.55 4.45 22 5 22H19C19.55 22 20 21.55 20 21V3C20 2.45 19.55 2 19 2ZM18 20H6V4H18V20Z" fill="currentColor" />
</svg>
