<svg width="24" height="24" viewBox="0 0 24 24" fill="none" xmlns="http://www.w3.org/2000/svg">
<path fill-rule="evenodd" clip-rule="evenodd" d="M17.5 21.5C20.5376 21.5 23 19.0376 23 16C23 12.9624 20.5376 10.5 17.5 10.5C14.4624 10.5 12 12.9624 12 16C12 19.0376 14.4624 21.5 17.5 21.5ZM18 13C18 12.7239 17.7761 12.5 17.5 12.5C17.2239 12.5 17 12.7239 17 13V16C17 16.2761 17.2239 16.5 17.5 16.5H20C20.2761 16.5 20.5 16.2761 20.5 16C20.5 15.7239 20.2761 15.5 20 15.5H18V13Z" fill="currentColor" />
<path fill-rule="evenodd" clip-rule="evenodd" d="M1 3.5C1 2.94772 1.44772 2.5 2 2.5H14.5C15.0523 2.5 15.5 2.94772 15.5 3.5C15.5 4.05228 15.0523 4.5 14.5 4.5H14.4634C14.3951 5.38566 14.2324 6.13723 13.9823 6.7989C13.6404 7.70332 13.1554 8.38593 12.6176 8.98227C12.2791 9.35749 11.883 9.73419 11.5017 10.0967C11.3176 10.2718 11.1369 10.4436 10.9679 10.6103C10.619 10.9545 10.2689 11.3229 9.92369 11.75C10.203 12.0956 10.4856 12.4028 10.7681 12.6898C10.2763 13.6882 10 14.8118 10 16C10 18.1731 10.9242 20.1303 12.4009 21.5H2C1.44772 21.5 1 21.0523 1 20.5C1 19.9477 1.44772 19.5 2 19.5H2.00971C2.05427 18.3793 2.25153 17.4584 2.58671 16.6654C2.97213 15.7535 3.51471 15.0711 4.10539 14.4804C4.46528 14.1205 4.88814 13.7549 5.29571 13.4026C5.51069 13.2167 5.72142 13.0345 5.91647 12.8587C6.28964 12.5224 6.66166 12.1634 7.02573 11.75C6.66166 11.3366 6.28964 10.9776 5.91647 10.6413C5.7214 10.4655 5.51064 10.2833 5.29564 10.0974C4.88807 9.74501 4.46528 9.37949 4.10539 9.01961C3.51471 8.42892 2.97213 7.74648 2.58671 6.83464C2.30275 6.16282 2.11778 5.39914 2.04078 4.5H2C1.44772 4.5 1 4.05228 1 3.5ZM4.04991 4.5C4.11869 5.1405 4.25417 5.64258 4.42891 6.05598C4.57687 6.40603 4.76128 6.71239 4.98209 7H11.6413C11.827 6.72457 11.9839 6.42911 12.1115 6.09172C12.2714 5.66863 12.3944 5.15466 12.4561 4.5H4.04991Z" fill="currentColor" />
</svg>
