<svg width="24" height="24" viewBox="0 0 24 24" fill="none" xmlns="http://www.w3.org/2000/svg">
<path d="M11.72 7H11.78C12.18 7 12.5 7.32 12.5 7.72V12.26L16.37 14.56C16.72 14.76 16.83 15.21 16.62 15.55C16.42 15.89 15.98 15.99 15.64 15.79L11.49 13.3C11.18 13.12 11 12.79 11 12.44V7.72C11 7.32 11.32 7 11.72 7Z" fill="currentColor" />
<path d="M4 12C4 7.58172 7.58172 4 12 4C14.2872 4 16.3506 4.95925 17.8096 6.5H16.5C15.9477 6.5 15.5 6.94772 15.5 7.5C15.5 8.05228 15.9477 8.5 16.5 8.5H20C20.5523 8.5 21 8.05228 21 7.5V4C21 3.44772 20.5523 3 20 3C19.4477 3 19 3.44772 19 4V4.8587C17.197 3.09134 14.7261 2 12 2C6.47715 2 2 6.47715 2 12C2 17.5228 6.47715 22 12 22C16.956 22 21.0682 18.3957 21.8618 13.6655C21.9532 13.1208 21.5857 12.6052 21.041 12.5138C20.4963 12.4224 19.9807 12.7899 19.8893 13.3345C19.2547 17.1174 15.963 20 12 20C7.58172 20 4 16.4183 4 12Z" fill="currentColor" />
</svg>
