<svg width="24" height="24" viewBox="0 0 24 24" fill="none" xmlns="http://www.w3.org/2000/svg">
<path fill-rule="evenodd" clip-rule="evenodd" d="M9 5.40003C9 6.72552 7.92547 7.80005 6.59998 7.80005C5.27448 7.80005 4.19995 6.72552 4.19995 5.40003C4.19995 4.07453 5.27448 3 6.59998 3C7.92547 3 9 4.07453 9 5.40003ZM9.00006 15.0002L8.40006 21.0002H4.80002L4.20001 15.0002H4C3.44772 15.0002 3 14.5524 3 14.0002V11.8803C3 9.89207 4.61179 8.28027 6.60004 8.28027C8.58828 8.28027 10.2001 9.89207 10.2001 11.8803V14.0002C10.2001 14.5524 9.75236 15.0002 9.20007 15.0002H9.00006ZM16 4.75C16 4.33579 16.3358 4 16.75 4H19.25C19.6642 4 20 4.33579 20 4.75V7.25C20 7.66421 19.6642 8 19.25 8H16.75C16.3358 8 16 7.66421 16 7.25V6.75H14C13.8619 6.75 13.75 6.86193 13.75 7V11.25H16V10.75C16 10.3358 16.3358 10 16.75 10H19.25C19.6642 10 20 10.3358 20 10.75V13.25C20 13.6642 19.6642 14 19.25 14H16.75C16.3358 14 16 13.6642 16 13.25V12.75H13.75V17C13.75 17.1381 13.8619 17.25 14 17.25H16V16.75C16 16.3358 16.3358 16 16.75 16H19.25C19.6642 16 20 16.3358 20 16.75V19.25C20 19.6642 19.6642 20 19.25 20H16.75C16.3358 20 16 19.6642 16 19.25V18.75H14C13.0335 18.75 12.25 17.9665 12.25 17V12.75H12C11.5858 12.75 11.25 12.4142 11.25 12C11.25 11.5858 11.5858 11.25 12 11.25H12.25V7C12.25 6.0335 13.0335 5.25 14 5.25H16V4.75Z" fill="currentColor" />
</svg>
