<svg width="24" height="24" viewBox="0 0 24 24" fill="none" xmlns="http://www.w3.org/2000/svg">
<path fill-rule="evenodd" clip-rule="evenodd" d="M8 3C8 2.44772 8.44772 2 9 2H15C15.5523 2 16 2.44772 16 3V7C16 7.55228 15.5523 8 15 8H12.5V10.5H18C18.8284 10.5 19.5 11.1716 19.5 12V13H21C21.5523 13 22 13.4477 22 14V17.5C22 18.0523 21.5523 18.5 21 18.5H17C16.4477 18.5 16 18.0523 16 17.5V14C16 13.4477 16.4477 13 17 13H18.5V12C18.5 11.7239 18.2761 11.5 18 11.5H12.5V17H14C14.5523 17 15 17.4477 15 18V21.5C15 22.0523 14.5523 22.5 14 22.5H10C9.44772 22.5 9 22.0523 9 21.5V18C9 17.4477 9.44772 17 10 17H11.5V11.5H6C5.72386 11.5 5.5 11.7239 5.5 12V13H7C7.55228 13 8 13.4477 8 14V17.5C8 18.0523 7.55228 18.5 7 18.5H3C2.44772 18.5 2 18.0523 2 17.5V14C2 13.4477 2.44772 13 3 13H4.5V12C4.5 11.1716 5.17157 10.5 6 10.5H11.5V8H9C8.44772 8 8 7.55228 8 7V3ZM10 4V6H14V4H10ZM11 20.5V19H13V20.5H11ZM4 15V16.5H6V15H4ZM18 16.5V15H20V16.5H18Z" fill="currentColor" />
</svg>
