<svg width="24" height="24" viewBox="0 0 24 24" fill="none" xmlns="http://www.w3.org/2000/svg">
<path fill-rule="evenodd" clip-rule="evenodd" d="M5.5 9C7.18772 9 8.59643 7.80544 8.92676 6.2157H10.4919V7.54507C10.4919 7.84961 10.8539 8.00886 11.0784 7.80307L13.1703 5.88556C13.3432 5.72703 13.3432 5.45438 13.1703 5.29584L11.0784 3.37833C10.8539 3.17255 10.4919 3.3318 10.4919 3.63633V4.9657H8.95948C8.70223 3.28631 7.25133 2 5.5 2C3.56701 2 2 3.567 2 5.5C2 7.433 3.56701 9 5.5 9ZM5.5 7C6.32843 7 7 6.32843 7 5.5C7 4.67157 6.32843 4 5.5 4C4.67157 4 4 4.67157 4 5.5C4 6.32843 4.67157 7 5.5 7Z" fill="currentColor" />
<path fill-rule="evenodd" clip-rule="evenodd" d="M4.88001 13.4155L4.88001 14.9999H3.68C3.04429 14.9999 2.72643 14.9999 2.49096 15.1392C2.34598 15.2249 2.225 15.3459 2.13926 15.4909C2 15.7264 2 16.0442 2 16.6799V20.3199C2 20.9556 2 21.2735 2.13926 21.509C2.225 21.6539 2.34598 21.7749 2.49096 21.8607C2.72643 21.9999 3.04429 21.9999 3.68 21.9999H7.32C7.95571 21.9999 8.27357 21.9999 8.50904 21.8607C8.65402 21.7749 8.775 21.6539 8.86074 21.509C9 21.2735 9 20.9556 9 20.3199V16.6799C9 16.0442 9 15.7264 8.86074 15.4909C8.775 15.3459 8.65402 15.2249 8.50904 15.1392C8.27357 14.9999 7.95571 14.9999 7.32 14.9999H6.13001V13.4155H7.45937C7.76391 13.4155 7.92316 13.0535 7.71738 12.829L5.79987 10.7371C5.64134 10.5642 5.36868 10.5642 5.21015 10.7371L3.29264 12.829C3.08685 13.0535 3.2461 13.4155 3.55064 13.4155H4.88001ZM4 16.9999V19.9999H7V16.9999H4Z" fill="currentColor" />
<path fill-rule="evenodd" clip-rule="evenodd" d="M15.7881 6.68772C15.3386 6.2382 15.1139 6.01344 15.0458 5.74847C15.0039 5.58532 15.0039 5.41423 15.0458 5.25109C15.1139 4.98611 15.3386 4.76135 15.7881 4.31184L17.3013 2.79863C17.7508 2.34912 17.9756 2.12435 18.2406 2.05632C18.4037 2.01443 18.5748 2.01443 18.738 2.05632C19.0029 2.12435 19.2277 2.34911 19.6772 2.79863L21.1904 4.31184C21.6399 4.76135 21.8647 4.98611 21.9327 5.25109C21.9746 5.41423 21.9746 5.58532 21.9327 5.74847C21.8647 6.01344 21.6399 6.2382 21.1904 6.68772L19.6772 8.20092C19.4481 8.43001 19.2774 8.60072 19.13 8.72206V10.7046H20.4594C20.7639 10.7046 20.9232 11.0666 20.7174 11.2911L18.7999 13.3829C18.6413 13.5559 18.3687 13.5559 18.2101 13.3829L16.2926 11.2911C16.0869 11.0666 16.2461 10.7046 16.5506 10.7046H17.88V8.74749C17.7254 8.62498 17.5469 8.4465 17.3014 8.20094L15.7881 6.68772ZM18.4893 6.56044L17.4286 5.49978L18.4893 4.43912L19.5499 5.49978L18.4893 6.56044Z" fill="currentColor" />
<path fill-rule="evenodd" clip-rule="evenodd" d="M18.5 22C20.433 22 22 20.433 22 18.5C22 16.567 20.433 15 18.5 15C16.567 15 15 16.567 15 18.5C15 20.433 16.567 22 18.5 22ZM20 18.5C20 19.3284 19.3284 20 18.5 20C17.6716 20 17 19.3284 17 18.5C17 17.6716 17.6716 17 18.5 17C19.3284 17 20 17.6716 20 18.5Z" fill="currentColor" />
</svg>
