<svg width="24" height="24" viewBox="0 0 24 24" fill="none" xmlns="http://www.w3.org/2000/svg">
<path fill-rule="evenodd" clip-rule="evenodd" d="M4 2C3.44772 2 3 2.44772 3 3V7C3 7.55228 3.44772 8 4 8H20C20.5523 8 21 7.55228 21 7V3C21 2.44772 20.5523 2 20 2H4ZM5 5C5 4.44772 5.44772 4 6 4H10C10.5523 4 11 4.44772 11 5C11 5.55228 10.5523 6 10 6H6C5.44772 6 5 5.55228 5 5ZM13 5C13 4.44772 13.4477 4 14 4H18C18.5523 4 19 4.44772 19 5C19 5.55228 18.5523 6 18 6H14C13.4477 6 13 5.55228 13 5Z" fill="currentColor" />
<path fill-rule="evenodd" clip-rule="evenodd" d="M13 11C13 10.4477 13.4477 10 14 10H20C20.5523 10 21 10.4477 21 11V21C21 21.5523 20.5523 22 20 22H14C13.4477 22 13 21.5523 13 21V11ZM18 15L16 15C15.4477 15 15 14.5523 15 14C15 13.4477 15.4477 13 16 13L18 13C18.5523 13 19 13.4477 19 14C19 14.5523 18.5523 15 18 15ZM16 19L18 19C18.5523 19 19 18.5523 19 18C19 17.4477 18.5523 17 18 17L16 17C15.4477 17 15 17.4477 15 18C15 18.5523 15.4477 19 16 19Z" fill="currentColor" />
<path d="M5 11C5 10.4477 4.55228 10 4 10C3.44771 10 3 10.4477 3 11L3 12C3.00001 13.4953 3.53118 14.7659 4.46718 15.6604C5.39614 16.5483 6.65458 17 8.00001 17V18.7946C8.00001 19.2446 8.54001 19.4646 8.85001 19.1446L11.64 16.3546C11.84 16.1546 11.84 15.8446 11.64 15.6446L8.85001 12.8546C8.54001 12.5446 8.00001 12.7646 8.00001 13.2146V15C7.10033 15 6.35877 14.7017 5.84901 14.2146C5.34629 13.7341 5.00001 13.0047 5 12L5 11Z" fill="currentColor" />
</svg>
