<svg width="24" height="24" viewBox="0 0 24 24" fill="none" xmlns="http://www.w3.org/2000/svg">
<path d="M20 3H19V2C19 1.45 18.55 1 18 1C17.45 1 17 1.45 17 2V3H7V2C7 1.45 6.55 1 6 1C5.45 1 5 1.45 5 2V3H4C2.9 3 2 3.9 2 5V21C2 22.1 2.9 23 4 23H20C21.1 23 22 22.1 22 21V5C22 3.9 21.1 3 20 3ZM19 21H5C4.45 21 4 20.55 4 20V8H20V20C20 20.55 19.55 21 19 21Z" fill="currentColor" />
<path fill-rule="evenodd" clip-rule="evenodd" d="M10.634 10H12.9711C13.809 10 14.5045 10.3381 14.9784 10.8846C15.435 11.4112 15.6455 12.0817 15.6507 12.7191C15.656 13.3565 15.4562 14.034 14.9964 14.5675C14.5187 15.122 13.8155 15.4545 12.9711 15.4545H11.634V16.2673H11.8C12.3523 16.2673 12.8 16.715 12.8 17.2673C12.8 17.8196 12.3523 18.2673 11.8 18.2673H11.5979C11.4809 18.6898 11.0937 19 10.634 19C10.1743 19 9.78702 18.6898 9.67011 18.2673H9.5C8.94772 18.2673 8.5 17.8196 8.5 17.2673C8.5 16.715 8.94772 16.2673 9.5 16.2673H9.63398V15.45H9.5C8.94772 15.45 8.5 15.0023 8.5 14.45C8.5 13.8977 8.94772 13.45 9.5 13.45H9.63398V11C9.63398 10.4477 10.0817 10 10.634 10ZM11.634 13.4545H12.9711C13.2607 13.4545 13.4009 13.3553 13.4813 13.262C13.5796 13.1479 13.6527 12.9616 13.6508 12.7355C13.649 12.5092 13.5725 12.3161 13.4674 12.1949C13.3796 12.0937 13.2388 12 12.9711 12H11.634V13.4545Z" fill="currentColor" />
</svg>
