<svg width="24" height="24" viewBox="0 0 24 24" fill="none" xmlns="http://www.w3.org/2000/svg">
<path d="M19 3H18V2C18 1.45 17.55 1 17 1C16.45 1 16 1.45 16 2V3H8V2C8 1.45 7.55 1 7 1C6.45 1 6 1.45 6 2V3H5C3.89 3 3.01 3.9 3.01 5L3 19C3 20.1 3.89 21 5 21H19C20.1 21 21 20.1 21 19V5C21 3.9 20.1 3 19 3ZM18 19H6C5.45 19 5 18.55 5 18V8H19V18C19 18.55 18.55 19 18 19Z" fill="currentColor" />
<path d="M12.5728 14.9407C12.5728 16.2717 11.4197 17.1557 9.71783 17.1557C8.32082 17.1557 7.46229 16.5511 7.11684 15.8298C7.03556 15.6621 7 15.4996 7 15.3472C7 14.9509 7.254 14.702 7.67565 14.702C7.98045 14.702 8.17349 14.8239 8.3259 15.1033C8.58498 15.6164 8.98122 15.9212 9.74323 15.9212C10.4951 15.9212 11.0132 15.4843 11.0132 14.8747C11.0183 14.1635 10.4951 13.7673 9.60607 13.7673H9.28603C8.91518 13.7673 8.70182 13.5488 8.70182 13.2186C8.70182 12.8986 8.91518 12.675 9.28603 12.675H9.58575C10.3528 12.675 10.8507 12.2585 10.8507 11.659C10.8507 11.0697 10.4544 10.6786 9.71275 10.6786C9.09299 10.6786 8.71706 10.9377 8.4783 11.4558C8.31066 11.8013 8.13285 11.9283 7.78741 11.9283C7.36068 11.9283 7.14224 11.6793 7.14224 11.3085C7.14224 11.1358 7.1778 10.9885 7.254 10.8157C7.57913 10.0994 8.41226 9.5 9.70767 9.5C11.2571 9.5 12.3036 10.2671 12.3036 11.4406C12.3036 12.3702 11.6381 12.9798 10.7745 13.1576V13.1881C11.8667 13.2897 12.5728 13.9298 12.5728 14.9407Z" fill="currentColor" />
<path d="M17 16.3327C17 16.795 16.6952 17.0998 16.2431 17.0998C15.7909 17.0998 15.4811 16.795 15.4811 16.3327V11.085H15.4506L14.3787 11.8317C14.2364 11.9333 14.1298 11.9689 13.9723 11.9689C13.6624 11.9689 13.4338 11.7454 13.4338 11.4203C13.4338 11.1866 13.5252 11.0139 13.764 10.8462L15.2169 9.84036C15.5725 9.59652 15.8163 9.5508 16.1313 9.5508C16.6749 9.5508 17 9.881 17 10.4093V16.3327Z" fill="currentColor" />
</svg>
