<svg width="24" height="24" viewBox="0 0 24 24" fill="none" xmlns="http://www.w3.org/2000/svg">
<path d="M21 12V6C21 4.9 20.1 4 19 4H18V3C18 2.45 17.55 2 17 2C16.45 2 16 2.45 16 3V4H8V3C8 2.45 7.55 2 7 2C6.45 2 6 2.45 6 3V4H5C3.9 4 3 4.9 3 6V20C3 21.1 3.9 22 5 22H12V20H5V10H19V12H21Z" fill="currentColor" />
<path d="M19 14C16.24 14 14 16.24 14 19C14 21.76 16.24 24 19 24C21.76 24 24 21.76 24 19C24 16.24 21.76 14 19 14ZM20.29 21L18.64 19.35C18.55 19.26 18.49 19.13 18.49 19V16.51C18.49 16.23 18.71 16.01 18.99 16.01C19.27 16.01 19.49 16.23 19.49 16.51V18.8L20.99 20.3C21.19 20.5 21.19 20.81 20.99 21.01C20.8 21.2 20.49 21.2 20.29 21Z" fill="currentColor" />
</svg>
