<svg width="24" height="24" viewBox="0 0 24 24" fill="none" xmlns="http://www.w3.org/2000/svg">
<path d="M12.39 10H8.39001C8.11001 10 7.89001 10.22 7.89001 10.5C7.89001 10.78 8.11001 11 8.39001 11H12.39C12.67 11 12.89 10.78 12.89 10.5C12.89 10.22 12.67 10 12.39 10Z" fill="currentColor" />
<path fill-rule="evenodd" clip-rule="evenodd" d="M7.4739 3.58702C3.74064 5.17362 2.00042 9.48622 3.58702 13.2195C5.17362 16.9527 9.48622 18.693 13.2195 17.1064C13.8221 16.8503 14.3728 16.5231 14.8659 16.1389L19.2653 20.5389C19.6167 20.8904 20.1865 20.8904 20.538 20.539C20.8895 20.1875 20.8896 19.6177 20.5381 19.2662L16.1384 14.8658C17.7241 12.8298 18.1873 10.0174 17.1064 7.4739C15.5198 3.74064 11.2072 2.00042 7.4739 3.58702ZM14.3094 14.2272C15.8287 12.6744 16.3525 10.302 15.4498 8.17794C14.252 5.35959 10.9963 4.04585 8.17794 5.24362C5.35959 6.44139 4.04586 9.6971 5.24362 12.5154C6.44139 15.3338 9.6971 16.6475 12.5154 15.4498C13.1717 15.1709 13.7463 14.7804 14.2267 14.3099C14.2396 14.2952 14.253 14.2809 14.2669 14.267C14.2808 14.2532 14.2949 14.2399 14.3094 14.2272Z" fill="currentColor" />
</svg>
