<svg width="24" height="24" viewBox="0 0 24 24" fill="none" xmlns="http://www.w3.org/2000/svg">
<path d="M13.6026 9.20105C13.687 8.65757 13.3115 8.1438 12.768 8.05933C12.2245 7.97485 11.7108 8.3504 11.6263 8.89387L10.3976 16.799C10.3131 17.3424 10.6886 17.8562 11.2321 17.9407C11.7756 18.0251 12.2894 17.6496 12.3738 17.1061L13.6026 9.20105Z" fill="currentColor" />
<path d="M16.1026 9.70998C15.7126 9.31998 15.0826 9.31998 14.6926 9.70998C14.3026 10.1 14.3026 10.73 14.6926 11.12L16.5726 13L14.6926 14.89C14.3026 15.28 14.3026 15.91 14.6926 16.3C15.0826 16.69 15.7126 16.69 16.1026 16.3L18.6926 13.71C19.0826 13.32 19.0826 12.69 18.6926 12.3L16.1026 9.70998Z" fill="currentColor" />
<path d="M7.8825 9.71001C8.2725 9.32001 8.9025 9.32001 9.2925 9.71001C9.6825 10.1 9.6825 10.73 9.2925 11.12L7.4125 13L9.2925 14.89C9.6825 15.28 9.6825 15.91 9.2925 16.3C8.9025 16.69 8.2725 16.69 7.8825 16.3L5.2925 13.71C4.9025 13.32 4.9025 12.69 5.2925 12.3L7.8825 9.71001Z" fill="currentColor" />
<path fill-rule="evenodd" clip-rule="evenodd" d="M20 3H4C2.89 3 2 3.9 2 5V19C2 20.1 2.89 21 4 21H20C21.1 21 22 20.1 22 19V5C22 3.9 21.11 3 20 3ZM20 19H4V7H20V19ZM5.6 4.8C5.6 5.24183 5.24183 5.6 4.8 5.6C4.35817 5.6 4 5.24183 4 4.8C4 4.35817 4.35817 4 4.8 4C5.24183 4 5.6 4.35817 5.6 4.8ZM7.3 5.6C7.74183 5.6 8.1 5.24183 8.1 4.8C8.1 4.35817 7.74183 4 7.3 4C6.85817 4 6.5 4.35817 6.5 4.8C6.5 5.24183 6.85817 5.6 7.3 5.6ZM10.6 4.8C10.6 5.24183 10.2418 5.6 9.8 5.6C9.35817 5.6 9 5.24183 9 4.8C9 4.35817 9.35817 4 9.8 4C10.2418 4 10.6 4.35817 10.6 4.8Z" fill="currentColor" />
</svg>
