<svg width="24" height="24" viewBox="0 0 24 24" fill="none" xmlns="http://www.w3.org/2000/svg">
<path d="M7.70998 6.70978C7.31998 6.31978 6.68998 6.31978 6.29998 6.70978L1.70998 11.2998C1.31998 11.6898 1.31998 12.3198 1.70998 12.7098L6.29998 17.2998C6.68998 17.6898 7.31998 17.6898 7.70998 17.2998C8.09998 16.9098 8.09998 16.2798 7.70998 15.8898L3.82998 11.9998L7.70998 8.11978C8.08998 7.72978 8.08998 7.08978 7.70998 6.70978ZM16.29 6.70978C15.9 7.09978 15.9 7.72978 16.29 8.11978L20.17 11.9998L16.29 15.8798C15.9 16.2698 15.9 16.8998 16.29 17.2898C16.68 17.6798 17.31 17.6798 17.7 17.2898L22.29 12.6998C22.68 12.3098 22.68 11.6798 22.29 11.2898L17.7 6.69978C17.32 6.31978 16.68 6.31978 16.29 6.70978Z" fill="currentColor" />
<path fill-rule="evenodd" clip-rule="evenodd" d="M14.807 3.04829C15.3326 3.21784 15.6213 3.78139 15.4517 4.307L10.4517 19.807C10.2822 20.3326 9.71864 20.6213 9.19302 20.4517C8.66741 20.2822 8.37876 19.7186 8.54832 19.193L13.5483 3.693C13.7179 3.16738 14.2814 2.87874 14.807 3.04829Z" fill="currentColor" />
</svg>
