<svg width="24" height="24" viewBox="0 0 24 24" fill="none" xmlns="http://www.w3.org/2000/svg">
<path d="M2.72344 8.85632C2.33291 8.4658 2.33291 7.83263 2.72344 7.44211L6.89998 3.26557C7.09171 3.07384 7.35307 2.96818 7.62418 2.97282L10.7527 3.02631C10.9373 3.02947 11.1135 3.10422 11.244 3.23479C11.5221 3.51289 11.5221 3.96379 11.244 4.24189L5.38363 10.1023C4.99311 10.4928 4.35994 10.4928 3.96942 10.1023L2.72344 8.85632Z" fill="currentColor" />
<path d="M7.50495 9.3952L9.62627 7.27388L12.4054 10.053L14.7827 7.67575C14.3439 6.44248 14.6181 5.01232 15.6053 4.02514C16.5926 3.03788 18.0229 2.76372 19.2562 3.20265L17.3731 5.0858C16.9826 5.47633 16.9826 6.10949 17.3731 6.50002L18.0802 7.20712C18.4707 7.59765 19.1039 7.59765 19.4944 7.20712L21.3776 5.32397C21.8165 6.55731 21.5423 7.98763 20.5551 8.97489C19.5677 9.96223 18.1372 10.2364 16.9038 9.79727L14.5267 12.1744L20.5864 18.234C20.9769 18.6246 20.977 19.2577 20.5864 19.6482L19.8793 20.3554C19.4888 20.7459 18.8556 20.7459 18.4651 20.3554L7.50495 9.3952Z" fill="currentColor" />
<path d="M8.8792 13.5793L11.0005 15.7006L6.31597 20.3851C5.92545 20.7757 5.29228 20.7757 4.90176 20.3851L4.19465 19.678C3.80413 19.2875 3.80413 18.6543 4.19465 18.2638L8.8792 13.5793Z" fill="currentColor" />
</svg>
