<svg width="24" height="24" viewBox="0 0 24 24" fill="none" xmlns="http://www.w3.org/2000/svg">
<path d="M21 3.01H3C1.9 3.01 1 3.91 1 5.01V8C1 8.55 1.45 9 2 9C2.55 9 3 8.55 3 8V5.99C3 5.44 3.45 4.99 4 4.99H20C20.55 4.99 21 5.44 21 5.99V18.02C21 18.57 20.55 19.02 20 19.02H4C3.45 19.02 3 18.57 3 18.02V16C3 15.45 2.55 15 2 15C1.45 15 1 15.45 1 16V19.01C1 20.1 1.89 20.99 2.98 20.99H21C22.1 20.99 23 20.09 23 18.99V5.01C23 3.91 22.1 3.01 21 3.01ZM11.85 15.15L14.64 12.36C14.84 12.16 14.84 11.85 14.64 11.65L11.85 8.86C11.54 8.54 11 8.76 11 9.21V11H2C1.45 11 1 11.45 1 12C1 12.55 1.45 13 2 13H11V14.79C11 15.24 11.54 15.46 11.85 15.15Z" fill="currentColor" />
</svg>
