<svg width="24" height="24" viewBox="0 0 24 24" fill="none" xmlns="http://www.w3.org/2000/svg">
<path d="M7.5 5C6.94772 5 6.5 4.55228 6.5 4C6.5 3.44772 6.94772 3 7.5 3H10.5C11.0523 3 11.5 3.44772 11.5 4C11.5 4.55228 11.0523 5 10.5 5H10V19H10.5C11.0523 19 11.5 19.4477 11.5 20C11.5 20.5523 11.0523 21 10.5 21H7.5C6.94772 21 6.5 20.5523 6.5 20C6.5 19.4477 6.94772 19 7.5 19H8V5H7.5Z" fill="currentColor" />
<path d="M7 8C7 7.44772 6.55228 7 6 7H5C3.34315 7 2 8.34315 2 10V14C2 15.6569 3.34315 17 5 17H6C6.55228 17 7 16.5523 7 16C7 15.4477 6.55228 15 6 15H5C4.44772 15 4 14.5523 4 14V10C4 9.44772 4.44772 9 5 9H6C6.55228 9 7 8.55228 7 8Z" fill="currentColor" />
<path d="M19 9C19.5523 9 20 9.44772 20 10V14C20 14.5523 19.5523 15 19 15H12C11.4477 15 11 15.4477 11 16C11 16.5523 11.4477 17 12 17H19C20.6569 17 22 15.6569 22 14V10C22 8.34315 20.6569 7 19 7H12C11.4477 7 11 7.44772 11 8C11 8.55228 11.4477 9 12 9H19Z" fill="currentColor" />
</svg>
