<svg width="24" height="24" viewBox="0 0 24 24" fill="none" xmlns="http://www.w3.org/2000/svg">
<path fill-rule="evenodd" clip-rule="evenodd" d="M20 4H4C2.9 4 2 4.9 2 6V18C2 19.1 2.9 20 4 20H20C21.1 20 22 19.1 22 18V6C22 4.9 21.1 4 20 4ZM8 8H9.66667C10.4 8 11 8.6 11 9.33333V15C11 15.5467 10.5467 16 10 16C9.45333 16 9 15.5467 9 15V10H8C7.45333 10 7 9.54667 7 9C7 8.45333 7.45333 8 8 8ZM14.3333 11.3333C13.6 11.3333 13 11.9333 13 12.6667V16H18C18.5467 16 19 15.5467 19 15C19 14.4533 18.5467 14 18 14H15V12.6667H17.6667C18.4 12.6667 19 12.0667 19 11.3333V9.33333C19 8.6 18.4 8 17.6667 8H14C13.4533 8 13 8.45333 13 9C13 9.54667 13.4533 10 14 10H17V11.3333H14.3333ZM5.75 16C6.44036 16 7 15.4404 7 14.75C7 14.0596 6.44036 13.5 5.75 13.5C5.05964 13.5 4.5 14.0596 4.5 14.75C4.5 15.4404 5.05964 16 5.75 16Z" fill="currentColor" />
</svg>
