<svg width="24" height="24" viewBox="0 0 24 24" fill="none" xmlns="http://www.w3.org/2000/svg">
<path fill-rule="evenodd" clip-rule="evenodd" d="M4 3C3.44772 3 3 3.44772 3 4V5.5C3 6.05228 3.44772 6.5 4 6.5H5.5C6.05228 6.5 6.5 6.05228 6.5 5.5V4C6.5 3.44772 6.05228 3 5.5 3H4ZM11.25 3C10.6977 3 10.25 3.44772 10.25 4V5.5C10.25 6.05228 10.6977 6.5 11.25 6.5H12.75C13.3023 6.5 13.75 6.05228 13.75 5.5V4C13.75 3.44772 13.3023 3 12.75 3H11.25ZM17.5 4C17.5 3.44772 17.9477 3 18.5 3H20C20.5523 3 21 3.44772 21 4V5.5C21 6.05228 20.5523 6.5 20 6.5H18.5C17.9477 6.5 17.5 6.05228 17.5 5.5V4ZM4 10.25C3.44772 10.25 3 10.6977 3 11.25V12.75C3 13.3023 3.44772 13.75 4 13.75H5.5C6.05228 13.75 6.5 13.3023 6.5 12.75V11.25C6.5 10.6977 6.05228 10.25 5.5 10.25H4ZM17.5 11.25C17.5 10.6977 17.9477 10.25 18.5 10.25H20C20.5523 10.25 21 10.6977 21 11.25V12.75C21 13.3023 20.5523 13.75 20 13.75H18.5C17.9477 13.75 17.5 13.3023 17.5 12.75V11.25ZM4 17.5C3.44772 17.5 3 17.9477 3 18.5V20C3 20.5523 3.44772 21 4 21H5.5C6.05228 21 6.5 20.5523 6.5 20V18.5C6.5 17.9477 6.05228 17.5 5.5 17.5H4ZM10.25 18.5C10.25 17.9477 10.6977 17.5 11.25 17.5H12.75C13.3023 17.5 13.75 17.9477 13.75 18.5V20C13.75 20.5523 13.3023 21 12.75 21H11.25C10.6977 21 10.25 20.5523 10.25 20V18.5ZM18.5 17.5C17.9477 17.5 17.5 17.9477 17.5 18.5V20C17.5 20.5523 17.9477 21 18.5 21H20C20.5523 21 21 20.5523 21 20V18.5C21 17.9477 20.5523 17.5 20 17.5H18.5Z" fill="currentColor" />
</svg>
