<svg width="24" height="24" viewBox="0 0 24 24" fill="none" xmlns="http://www.w3.org/2000/svg">
<path d="M3 7C3.55 7 4 6.55 4 6V5C4 4.45 4.45 4 5 4H6C6.55 4 7 3.55 7 3C7 2.45 6.55 2 6 2H5C3.34 2 2 3.34 2 5V6C2 6.55 2.45 7 3 7Z" fill="currentColor" />
<path d="M6 19H5C4.45 19 4 18.55 4 18V17C4 16.45 3.55 16 3 16C2.45 16 2 16.45 2 17V18C2 19.66 3.34 21 5 21H6C6.55 21 7 20.55 7 20C7 19.45 6.55 19 6 19Z" fill="currentColor" />
<path d="M19 2H18C17.45 2 17 2.45 17 3C17 3.55 17.45 4 18 4H19C19.55 4 20 4.45 20 5V6C20 6.55 20.45 7 21 7C21.55 7 22 6.55 22 6V5C22 3.34 20.66 2 19 2Z" fill="currentColor" />
<path d="M21 16C20.45 16 20 16.45 20 17V18C20 18.55 19.55 19 19 19H18C17.45 19 17 19.45 17 20C17 20.55 17.45 21 18 21H19C20.66 21 22 19.66 22 18V17C22 16.45 21.55 16 21 16Z" fill="currentColor" />
<path d="M10.75 10H13.25C13.9375 10 14.5 9.4375 14.5 8.75V6.25C14.5 5.5625 13.9375 5 13.25 5H10.75C10.0625 5 9.5 5.5625 9.5 6.25V8.75C9.5 9.4375 10.0625 10 10.75 10Z" fill="currentColor" />
<path d="M7.25 17H9.75C10.4375 17 11 16.4375 11 15.75V13.25C11 12.5625 10.4375 12 9.75 12H7.25C6.5625 12 6 12.5625 6 13.25V15.75C6 16.4375 6.5625 17 7.25 17Z" fill="currentColor" />
<path d="M14.25 17H16.75C17.4375 17 18 16.4375 18 15.75V13.25C18 12.5625 17.4375 12 16.75 12H14.25C13.5625 12 13 12.5625 13 13.25V15.75C13 16.4375 13.5625 17 14.25 17Z" fill="currentColor" />
</svg>
