<svg width="24" height="24" viewBox="0 0 24 24" fill="none" xmlns="http://www.w3.org/2000/svg">
<path fill-rule="evenodd" clip-rule="evenodd" d="M4.54263 10.2859C3.76159 11.0669 3.76159 12.3332 4.54263 13.1143C5.32368 13.8953 6.59001 13.8953 7.37106 13.1143L8.78527 11.7001C9.1758 11.3095 9.80896 11.3095 10.1995 11.7001C10.59 12.0906 10.59 12.7238 10.1995 13.1143L8.78528 14.5285C7.22318 16.0906 4.69052 16.0906 3.12842 14.5285C1.56632 12.9664 1.56632 10.4337 3.12842 8.87164L4.54263 7.45743C4.93316 7.0669 5.56632 7.0669 5.95685 7.45743C6.34737 7.84795 6.34737 8.48112 5.95685 8.87164L4.54263 10.2859Z" fill="currentColor" />
<path fill-rule="evenodd" clip-rule="evenodd" d="M10.1995 4.629C10.9805 3.84795 12.2469 3.84795 13.0279 4.629C13.809 5.41005 13.809 6.67638 13.0279 7.45743L11.6137 8.87164C11.2232 9.26216 11.2232 9.89533 11.6137 10.2859C12.0042 10.6764 12.6374 10.6764 13.0279 10.2859L14.4421 8.87164C16.0042 7.30954 16.0042 4.77688 14.4421 3.21479C12.88 1.65269 10.3474 1.65269 8.78527 3.21479L7.37106 4.629C6.98054 5.01952 6.98054 5.65269 7.37106 6.04321C7.76159 6.43374 8.39475 6.43374 8.78527 6.04321L10.1995 4.629Z" fill="currentColor" />
<path fill-rule="evenodd" clip-rule="evenodd" d="M6.3104 11.3465C5.91988 10.956 5.91988 10.3228 6.3104 9.9323L9.84593 6.39677C10.2365 6.00624 10.8696 6.00624 11.2601 6.39677C11.6507 6.78729 11.6507 7.42046 11.2601 7.81098L7.72462 11.3465C7.33409 11.737 6.70093 11.737 6.3104 11.3465Z" fill="currentColor" />
<path d="M17.5195 21H14.6354V12.2727H17.5433C18.3617 12.2727 19.0661 12.4474 19.6567 12.7969C20.2473 13.1434 20.7015 13.642 21.0193 14.2926C21.3398 14.9432 21.5 15.7216 21.5 16.6278C21.5 17.5369 21.3398 18.3182 21.0193 18.9716C20.7015 19.625 20.2447 20.1264 19.6488 20.4758C19.0555 20.8253 18.3458 21 17.5195 21ZM16.3555 19.419H17.448C17.9564 19.419 18.3842 19.3224 18.7311 19.1292C19.0807 18.9332 19.3429 18.6307 19.5177 18.2216C19.6951 17.8096 19.7838 17.2784 19.7838 16.6278C19.7838 15.9829 19.6951 15.4559 19.5177 15.0469C19.3429 14.6378 19.082 14.3366 18.7351 14.1434C18.3881 13.9503 17.9604 13.8537 17.4519 13.8537H16.3555V19.419Z" fill="currentColor" />
<path d="M13.2201 12.2727V21H11.5V12.2727H13.2201Z" fill="currentColor" />
</svg>
