<svg width="24" height="24" viewBox="0 0 24 24" fill="none" xmlns="http://www.w3.org/2000/svg">
<path d="M19.8845 14.2935L16.7645 11.1735C15.9045 11.7335 14.8745 12.0535 13.7645 11.9935C11.3945 11.8835 9.36446 10.0335 9.04446 7.68346C8.60446 4.33346 11.4945 1.50346 14.8745 2.07346C16.8245 2.40346 18.4445 3.92346 18.8745 5.85346C19.2045 7.31346 18.8845 8.67346 18.1745 9.75346L21.3045 12.8835C21.6945 13.2735 21.6945 13.9035 21.3045 14.2935C20.9145 14.6835 20.2745 14.6835 19.8845 14.2935ZM17.0045 7.00346C17.0045 5.35346 15.6545 4.00346 14.0045 4.00346C12.3545 4.00346 11.0045 5.35346 11.0045 7.00346C11.0045 8.65346 12.3545 10.0035 14.0045 10.0035C15.6545 10.0035 17.0045 8.65346 17.0045 7.00346Z" fill="currentColor" />
<path fill-rule="evenodd" clip-rule="evenodd" d="M6 16C4.89543 16 4 16.8954 4 18C4 19.1046 4.89543 20 6 20H8C8.55228 20 9 20.4477 9 21C9 21.5523 8.55228 22 8 22H6C3.79086 22 2 20.2091 2 18C2 15.7909 3.79086 14 6 14H8C8.55228 14 9 14.4477 9 15C9 15.5523 8.55228 16 8 16H6Z" fill="currentColor" />
<path fill-rule="evenodd" clip-rule="evenodd" d="M14 16C15.1046 16 16 16.8954 16 18C16 19.1046 15.1046 20 14 20H12C11.4477 20 11 20.4477 11 21C11 21.5523 11.4477 22 12 22H14C16.2091 22 18 20.2091 18 18C18 15.7909 16.2091 14 14 14H12C11.4477 14 11 14.4477 11 15C11 15.5523 11.4477 16 12 16H14Z" fill="currentColor" />
<path fill-rule="evenodd" clip-rule="evenodd" d="M6.5 18C6.5 17.4477 6.94772 17 7.5 17H12.5C13.0523 17 13.5 17.4477 13.5 18C13.5 18.5523 13.0523 19 12.5 19H7.5C6.94772 19 6.5 18.5523 6.5 18Z" fill="currentColor" />
</svg>
