<svg width="24" height="24" viewBox="0 0 24 24" fill="none" xmlns="http://www.w3.org/2000/svg">
<path fill-rule="evenodd" clip-rule="evenodd" d="M4.54263 10.2859C3.76159 11.0669 3.76159 12.3332 4.54263 13.1143C5.32368 13.8953 6.59001 13.8953 7.37106 13.1143L8.78527 11.7001C9.1758 11.3095 9.80896 11.3095 10.1995 11.7001C10.59 12.0906 10.59 12.7238 10.1995 13.1143L8.78528 14.5285C7.22318 16.0906 4.69052 16.0906 3.12842 14.5285C1.56632 12.9664 1.56632 10.4337 3.12842 8.87164L4.54263 7.45743C4.93316 7.0669 5.56632 7.0669 5.95685 7.45743C6.34737 7.84795 6.34737 8.48112 5.95685 8.87164L4.54263 10.2859Z" fill="currentColor" />
<path fill-rule="evenodd" clip-rule="evenodd" d="M10.1995 4.629C10.9805 3.84795 12.2469 3.84795 13.0279 4.629C13.809 5.41005 13.809 6.67638 13.0279 7.45743L11.6137 8.87164C11.2232 9.26216 11.2232 9.89533 11.6137 10.2859C12.0042 10.6764 12.6374 10.6764 13.0279 10.2859L14.4421 8.87164C16.0042 7.30954 16.0042 4.77688 14.4421 3.21479C12.88 1.65269 10.3474 1.65269 8.78527 3.21479L7.37106 4.629C6.98054 5.01952 6.98054 5.65269 7.37106 6.04321C7.76159 6.43374 8.39475 6.43374 8.78527 6.04321L10.1995 4.629Z" fill="currentColor" />
<path fill-rule="evenodd" clip-rule="evenodd" d="M6.3104 11.3465C5.91988 10.956 5.91988 10.3228 6.3104 9.9323L9.84593 6.39677C10.2365 6.00624 10.8696 6.00624 11.2601 6.39677C11.6507 6.78729 11.6507 7.42046 11.2601 7.81098L7.72462 11.3465C7.33409 11.737 6.70093 11.737 6.3104 11.3465Z" fill="currentColor" />
<path d="M12.1282 12.9758C13.5343 14.7819 15.6131 17.4546 15.6131 17.4546V19.9307C15.6131 20.2754 15.7907 20.5959 16.0831 20.7787L16.5073 21.0438C17.1734 21.4601 18.0373 20.9812 18.0373 20.1958V17.4546C18.0373 17.4546 20.1161 14.7819 21.5222 12.9758C21.8313 12.5758 21.5464 12.0001 21.0373 12.0001H12.607C12.104 12.0001 11.8191 12.5758 12.1282 12.9758Z" fill="currentColor" />
</svg>
