<svg width="24" height="24" viewBox="0 0 24 24" fill="none" xmlns="http://www.w3.org/2000/svg">
<path d="M12 4.92904L9.87871 7.05036C9.4898 7.43927 9.48981 8.07567 9.87871 8.46458C10.2676 8.85349 10.904 8.85349 11.2929 8.46458L13.4142 6.34326C14.581 5.17653 16.4902 5.17653 17.6569 6.34326C18.8236 7.50998 18.8236 9.41917 17.6569 10.5859L15.5356 12.7072C15.1467 13.0961 15.1467 13.7325 15.5356 14.1214C15.9245 14.5103 16.5609 14.5103 16.9498 14.1214L19.0711 12.0001C21.0227 10.0485 21.0227 6.88066 19.0711 4.92904C17.1195 2.97743 13.9516 2.97743 12 4.92904ZM9.17161 14.8285C9.56052 15.2174 10.1969 15.2174 10.5858 14.8285L14.8285 10.5859C15.2174 10.197 15.2174 9.56059 14.8285 9.17168C14.4396 8.78277 13.8032 8.78277 13.4142 9.17168L9.17161 13.4143C8.7827 13.8032 8.7827 14.4396 9.17161 14.8285ZM12.7071 15.5356L10.5858 17.657C9.41909 18.8237 7.50991 18.8237 6.34318 17.657C5.17645 16.4902 5.17645 14.5811 6.34318 13.4143L8.4645 11.293C8.85341 10.9041 8.85341 10.2677 8.4645 9.87879C8.07559 9.48988 7.4392 9.48988 7.05029 9.87879L4.92897 12.0001C2.97735 13.9517 2.97735 17.1196 4.92897 19.0712C6.88058 21.0228 10.0484 21.0228 12 19.0712L14.1214 16.9499C14.5103 16.5609 14.5103 15.9246 14.1214 15.5356C13.7324 15.1467 13.096 15.1467 12.7071 15.5356Z" fill="currentColor" />
</svg>
