<svg width="24" height="24" viewBox="0 0 24 24" fill="none" xmlns="http://www.w3.org/2000/svg">
<path d="M20.6585 9.27L20.6685 9.21C20.8285 8.59 20.3685 8 19.7385 8H16.9785L17.6785 5.21C17.8285 4.59 17.3685 4 16.7385 4C16.2885 4 15.9085 4.3 15.7985 4.73L14.9785 8H10.9785L11.6785 5.21C11.8285 4.59 11.3685 4 10.7385 4C10.2885 4 9.90854 4.3 9.79854 4.73L8.97854 8H5.73854C5.28854 8 4.89854 8.3 4.79854 8.73L4.77854 8.79C4.62854 9.41 5.08854 10 5.71854 10H8.47854L7.47854 14H4.23854C3.78854 14 3.40854 14.3 3.29854 14.73L3.27854 14.79C3.12854 15.41 3.58854 16 4.21854 16H6.97854L6.27854 18.79C6.12854 19.41 6.58854 20 7.21854 20C7.66854 20 8.04854 19.7 8.15854 19.27L8.97854 16H12.9785L12.2785 18.79C12.1285 19.41 12.5885 20 13.2185 20C13.6685 20 14.0485 19.7 14.1585 19.27L14.9785 16H18.2185C18.6685 16 19.0485 15.7 19.1585 15.27L19.1685 15.21C19.3185 14.6 18.8585 14 18.2285 14H15.4785L16.4785 10H19.7185C20.1685 10 20.5585 9.7 20.6585 9.27ZM13.4785 14H9.47854L10.4785 10H14.4785L13.4785 14Z" fill="currentColor" />
</svg>
