<svg width="24" height="24" viewBox="0 0 24 24" fill="none" xmlns="http://www.w3.org/2000/svg">
<path d="M11.2071 5.65681L13.3284 3.53549C15.28 1.58387 18.4478 1.58387 20.3994 3.53549C22.3511 5.4871 22.3511 8.65494 20.3994 10.6066L18.2781 12.7279C17.8892 13.1168 17.2528 13.1168 16.8639 12.7279C16.475 12.339 16.475 11.7026 16.8639 11.3137L18.9852 9.19234C20.152 8.02562 20.152 6.11643 18.9852 4.9497C17.8185 3.78298 15.9093 3.78298 14.7426 4.9497L12.6213 7.07102C12.2324 7.45993 11.596 7.45993 11.2071 7.07102C10.8182 6.68211 10.8182 6.04572 11.2071 5.65681Z" fill="currentColor" />
<path d="M9.19234 18.9213L11.3137 16.8C11.7026 16.411 12.339 16.411 12.7279 16.8C13.1168 17.1889 13.1168 17.8253 12.7279 18.2142L10.6066 20.3355C8.65494 22.2871 5.4871 22.2871 3.53549 20.3355C1.58387 18.3839 1.58387 15.216 3.53549 13.2644L5.65681 11.1431C6.04572 10.7542 6.68211 10.7542 7.07102 11.1431C7.45993 11.532 7.45993 12.1684 7.07102 12.5573L4.9497 14.6786C3.78298 15.8454 3.78298 17.7545 4.9497 18.9213C6.11643 20.088 8.02562 20.088 9.19234 18.9213Z" fill="currentColor" />
</svg>
