<svg width="24" height="24" viewBox="0 0 24 24" fill="none" xmlns="http://www.w3.org/2000/svg">
<path fill-rule="evenodd" clip-rule="evenodd" d="M4 4C4 3.44772 4.44772 3 5 3H18.3333C18.8856 3 19.3333 3.44772 19.3333 4V6.85714C19.3333 7.40943 18.8856 7.85714 18.3333 7.85714C17.781 7.85714 17.3333 7.40943 17.3333 6.85714V5H6.64024L11.8354 11.3678C12.1357 11.7358 12.1357 12.2642 11.8354 12.6322L6.64024 19H17.3333V17.1429C17.3333 16.5906 17.781 16.1429 18.3333 16.1429C18.8856 16.1429 19.3333 16.5906 19.3333 17.1429V20C19.3333 20.5523 18.8856 21 18.3333 21H5C4.44772 21 4 20.5523 4 20V19.4286C4 19.1982 4.07953 18.9749 4.22516 18.7964L9.77002 12L4.22516 5.20358C4.07953 5.02509 4 4.80179 4 4.57143V4Z" fill="currentColor" />
</svg>
