<svg width="24" height="24" viewBox="0 0 24 24" fill="none" xmlns="http://www.w3.org/2000/svg">
<path d="M4.00006 19H11.0001C11.5501 19 12.0001 19.45 12.0001 20C12.0001 20.55 11.5501 21 11.0001 21H4.00006C2.90006 21 2.00006 20.1 2.00006 19V5C2.00006 3.9 2.90006 3 4.00006 3H11.0001C11.5501 3 12.0001 3.45 12.0001 4C12.0001 4.55 11.5501 5 11.0001 5H4.00006V19Z" fill="currentColor" />
<path d="M16.7175 9.09997C16.3275 8.70997 16.3275 8.08997 16.7175 7.69997C17.1075 7.30997 17.7275 7.30997 18.1175 7.69997L21.7075 11.3C22.0975 11.69 22.0975 12.32 21.7075 12.71L18.1175 16.3C17.7275 16.69 17.1075 16.69 16.7175 16.3C16.3275 15.91 16.3275 15.29 16.7175 14.9L18.6175 13H9.41748C8.86748 13 8.41748 12.55 8.41748 12C8.41748 11.45 8.86748 11 9.41748 11H18.6175L16.7175 9.09997Z" fill="currentColor" />
</svg>
