<svg width="24" height="24" viewBox="0 0 24 24" fill="none" xmlns="http://www.w3.org/2000/svg">
<path d="M18.5674 7.43165C17.1207 5.3557 14.7177 4 11.999 4C7.58075 4 3.99902 7.58172 3.99902 12C3.99902 16.4183 7.58075 20 11.999 20C15.805 20 18.9924 17.3412 19.8008 13.7787C19.923 13.2401 20.4587 12.9026 20.9973 13.0248C21.5359 13.147 21.8734 13.6827 21.7512 14.2213C20.7407 18.6747 16.7594 22 11.999 22C6.47618 22 1.99902 17.5228 1.99902 12C1.99902 6.47715 6.47618 2 11.999 2C15.2716 2 18.176 3.57243 19.9994 5.99967L21.1444 4.85464C21.4626 4.53644 22 4.76271 21.9929 5.20819L22 9.16092C22 9.44376 21.7808 9.66296 21.4979 9.66296L17.5452 9.65589C17.0997 9.66296 16.8805 9.11849 17.1917 8.80736L18.5674 7.43165Z" fill="currentColor" />
</svg>
