<svg width="24" height="24" viewBox="0 0 24 24" fill="none" xmlns="http://www.w3.org/2000/svg">
<path d="M14 11V10C14 8.9 13.1 8 12 8C10.9 8 10 8.9 10 10V11C9.45 11 9 11.45 9 12V15C9 15.55 9.45 16 10 16H14C14.55 16 15 15.55 15 15V12C15 11.45 14.55 11 14 11ZM13 11H11V10C11 9.45 11.45 9 12 9C12.55 9 13 9.45 13 10V11Z" fill="currentColor" />
<path fill-rule="evenodd" clip-rule="evenodd" d="M5.43163 7.43165C6.87828 5.3557 9.28131 4 12 4C16.4183 4 20 7.58172 20 12C20 16.4183 16.4183 20 12 20C8.19399 20 5.00659 17.3412 4.19822 13.7787C4.076 13.2401 3.54031 12.9026 3.00172 13.0248C2.46313 13.147 2.12558 13.6827 2.2478 14.2213C3.25834 18.6747 7.23964 22 12 22C17.5228 22 22 17.5228 22 12C22 6.47715 17.5228 2 12 2C8.7274 2 5.82299 3.57243 3.99965 5.99967L2.85462 4.85464C2.53642 4.53644 1.99902 4.76271 2.00609 5.20819L1.99902 9.16092C1.99902 9.44376 2.21823 9.66296 2.50107 9.66296L6.4538 9.65589C6.89927 9.66296 7.11848 9.11849 6.80735 8.80736L5.53456 7.53457L5.43163 7.43165Z" fill="currentColor" />
</svg>
