<svg width="24" height="24" viewBox="0 0 24 24" fill="none" xmlns="http://www.w3.org/2000/svg">
<path d="M4 11.9999C4 9.66989 5.02 7.57989 6.62 6.11989L8.15 7.64989C8.46 7.95989 9 7.73989 9 7.28989V2.99989C9 2.71989 8.78 2.49989 8.5 2.49989H4.21C3.76 2.49989 3.54 3.03989 3.86 3.34989L5.2 4.69989C3.24 6.51989 2 9.10989 2 11.9999C2 16.7499 5.32 20.7299 9.76 21.7499C10.39 21.8899 11 21.4199 11 20.7699C11 20.2999 10.67 19.8999 10.21 19.7899C6.66 18.9799 4 15.7999 4 11.9999ZM22 11.9999C22 7.24989 18.68 3.26989 14.24 2.24989C13.61 2.10989 13 2.57989 13 3.22989C13 3.69989 13.33 4.09989 13.79 4.20989C17.34 5.01989 20 8.19989 20 11.9999C20 14.3299 18.98 16.4199 17.38 17.8799L15.85 16.3499C15.54 16.0399 15 16.2599 15 16.7099V20.9999C15 21.2799 15.22 21.4999 15.5 21.4999H19.79C20.24 21.4999 20.46 20.9599 20.14 20.6499L18.8 19.2999C20.76 17.4799 22 14.8899 22 11.9999Z" fill="currentColor" />
<path d="M13.0001 8C13.0001 7.45 12.5501 7 12.0001 7C11.4501 7 11.0001 7.45 11.0001 8V12C11.0001 12.55 11.4501 13 12.0001 13C12.5501 13 13.0001 12.55 13.0001 12V8Z" fill="currentColor" />
<path d="M12 17.2C12.6628 17.2 13.2 16.6627 13.2 16C13.2 15.3372 12.6628 14.8 12 14.8C11.3373 14.8 10.8 15.3372 10.8 16C10.8 16.6627 11.3373 17.2 12 17.2Z" fill="currentColor" />
</svg>
