<svg width="24" height="24" viewBox="0 0 24 24" fill="none" xmlns="http://www.w3.org/2000/svg">
<path d="M3.12402 19C3.60402 19 4.03402 18.7 4.18402 18.25L5.19402 15.42H10.844L11.834 18.24C11.994 18.7 12.424 19 12.904 19C13.694 19 14.234 18.21 13.954 17.48L9.70402 6.17C9.44402 5.47 8.76402 5 8.01402 5C7.26402 5 6.58402 5.47 6.32402 6.17L2.07402 17.48C1.79402 18.21 2.34402 19 3.12402 19ZM7.95402 7.6H8.07402L10.104 13.39H5.92402L7.95402 7.6Z" fill="currentColor" />
<path fill-rule="evenodd" clip-rule="evenodd" d="M16.9898 12.4944C17.4344 12.2119 18.3398 11.9737 19.0992 12.0578C19.4662 12.0984 19.6919 12.2032 19.8093 12.3054C19.8924 12.3777 19.9858 12.4987 19.9858 12.8041V13.3307H19.6698C16.5566 13.3307 15 14.6225 15 16.4532C15 17.1176 15.2477 17.9437 15.7431 18.3669C16.2385 18.7852 16.8699 19 17.6373 19C18.7364 19 19.3963 18.7183 20.0211 18.2484C20.1376 18.6815 20.5285 19 20.9929 19C21.5491 19 22 18.5422 22 17.9786V12.8041C22 11.9556 21.6878 11.25 21.122 10.7574C20.5905 10.2947 19.9241 10.0961 19.3181 10.0289C18.1317 9.89751 16.7681 10.2262 15.9196 10.7654C15.4484 11.0649 15.306 11.6947 15.6015 12.1721C15.897 12.6496 16.5186 12.7939 16.9898 12.4944ZM19.9858 15.126V16.0348C19.7531 16.3574 19.4889 16.5831 19.0943 16.8268C18.6764 17.0849 16.8563 17.5827 16.8563 16.3794C16.8563 15.9808 17.409 15.126 19.4003 15.126H19.9858Z" fill="currentColor" />
</svg>
