<svg width="24" height="24" viewBox="0 0 24 24" fill="none" xmlns="http://www.w3.org/2000/svg">
<path d="M13 10C12.4477 10 12 10.4477 12 11C12 11.5523 12.4477 12 13 12H15V18C15 18.5523 15.4477 19 16 19C16.5523 19 17 18.5523 17 18V12H19C19.5523 12 20 11.5523 20 11C20 10.4477 19.5523 10 19 10H13Z" fill="currentColor" />
<path fill-rule="evenodd" clip-rule="evenodd" d="M5.98979 12.4944C6.43436 12.2119 7.3398 11.9737 8.09924 12.0578C8.46618 12.0984 8.69185 12.2032 8.80928 12.3054C8.89235 12.3777 8.98577 12.4987 8.98577 12.8041V13.3307H8.66985C5.55662 13.3307 4 14.6225 4 16.4532C4 17.1176 4.2477 17.9437 4.7431 18.3669C5.23849 18.7852 5.86988 19 6.63726 19C7.73641 19 8.39627 18.7183 9.02111 18.2484C9.13756 18.6815 9.52852 19 9.99288 19C10.5491 19 11 18.5422 11 17.9786V12.8041C11 11.9556 10.6878 11.25 10.122 10.7574C9.59054 10.2947 8.92411 10.0961 8.31813 10.0289C7.13173 9.89751 5.76808 10.2262 4.91956 10.7654C4.44836 11.0649 4.30595 11.6947 4.60149 12.1721C4.89703 12.6496 5.51859 12.7939 5.98979 12.4944ZM8.98577 15.126V16.0348C8.75312 16.3574 8.48888 16.5831 8.09431 16.8268C7.67635 17.0849 5.85628 17.5827 5.85628 16.3794C5.85628 15.9808 6.40899 15.126 8.40029 15.126H8.98577Z" fill="currentColor" />
</svg>
