<svg width="24" height="24" viewBox="0 0 24 24" fill="none" xmlns="http://www.w3.org/2000/svg">
<path fill-rule="evenodd" clip-rule="evenodd" d="M5.18402 16.25C5.03402 16.7 4.60402 17 4.12402 17C3.34402 17 2.79402 16.21 3.07402 15.48L7.32402 4.17C7.58402 3.47 8.26402 3 9.01402 3C9.76402 3 10.444 3.47 10.704 4.17L14.954 15.48C15.234 16.21 14.694 17 13.904 17C13.424 17 12.994 16.7 12.834 16.24L11.844 13.42H6.19402L5.18402 16.25ZM11.104 11.39L9.07402 5.6H8.95402L6.92402 11.39H11.104Z" fill="currentColor" />
<path d="M22.2071 13.7071C22.5976 13.3166 22.5976 12.6834 22.2071 12.2929C21.8166 11.9024 21.1834 11.9024 20.7929 12.2929L13.5 19.5858L10.7071 16.7929C10.3166 16.4024 9.68342 16.4024 9.29289 16.7929C8.90237 17.1834 8.90237 17.8166 9.29289 18.2071L12.7929 21.7071C13.1834 22.0976 13.8166 22.0976 14.2071 21.7071L22.2071 13.7071Z" fill="currentColor" />
</svg>
