<svg width="24" height="24" viewBox="0 0 24 24" fill="none" xmlns="http://www.w3.org/2000/svg">
<path d="M4 14H20C20.55 14 21 13.55 21 13C21 12.45 20.55 12 20 12H4C3.45 12 3 12.45 3 13C3 13.55 3.45 14 4 14Z" fill="currentColor" />
<path d="M6.5 5.5C6.5 4.94772 6.94772 4.5 7.5 4.5H16.5C17.0523 4.5 17.5 4.94772 17.5 5.5C17.5 6.05228 17.0523 6.5 16.5 6.5H13V10.5H11V6.5H7.5C6.94772 6.5 6.5 6.05228 6.5 5.5Z" fill="currentColor" />
<path d="M11 15.5V17.5C11 18.0523 11.4477 18.5 12 18.5C12.5523 18.5 13 18.0523 13 17.5V15.5H11Z" fill="currentColor" />
</svg>
