<svg width="24" height="24" viewBox="0 0 24 24" fill="none" xmlns="http://www.w3.org/2000/svg">
<path d="M5 20C5 20.55 5.45 21 6 21H18C18.55 21 19 20.55 19 20C19 19.45 18.55 19 18 19H6C5.45 19 5 19.45 5 20Z" fill="currentColor" />
<path fill-rule="evenodd" clip-rule="evenodd" d="M7.5 3C8.05228 3 8.5 3.44772 8.5 4V11.5C8.5 12.5718 8.92523 13.3193 9.53792 13.8185C10.175 14.3376 11.0658 14.625 12 14.625C12.9342 14.625 13.825 14.3376 14.4621 13.8185C15.0748 13.3193 15.5 12.5718 15.5 11.5V4C15.5 3.44772 15.9477 3 16.5 3C17.0523 3 17.5 3.44772 17.5 4V11.5C17.5 13.1782 16.8002 14.4932 15.7254 15.369C14.675 16.2249 13.3158 16.625 12 16.625C10.6842 16.625 9.32502 16.2249 8.27458 15.369C7.19977 14.4932 6.5 13.1782 6.5 11.5V4C6.5 3.44772 6.94772 3 7.5 3Z" fill="black"/>
</svg>
