<svg width="24" height="24" viewBox="0 0 24 24" fill="none" xmlns="http://www.w3.org/2000/svg">
<path d="M3.12402 19C3.60402 19 4.03402 18.7 4.18402 18.25L5.19402 15.42H10.844L11.834 18.24C11.994 18.7 12.424 19 12.904 19C13.694 19 14.234 18.21 13.954 17.48L9.70402 6.17C9.44402 5.47 8.76402 5 8.01402 5C7.26402 5 6.58402 5.47 6.32402 6.17L2.07402 17.48C1.79402 18.21 2.34402 19 3.12402 19ZM7.95402 7.6H8.07402L10.104 13.39H5.92402L7.95402 7.6Z" fill="currentColor" />
<path d="M12 5C11.4477 5 11 5.44772 11 6C11 6.55228 11.4477 7 12 7H15.5V18C15.5 18.5523 15.9477 19 16.5 19C17.0523 19 17.5 18.5523 17.5 18V7H21C21.5523 7 22 6.55228 22 6C22 5.44772 21.5523 5 21 5L12 5Z" fill="currentColor" />
</svg>
