<svg width="24" height="24" viewBox="0 0 24 24" fill="none" xmlns="http://www.w3.org/2000/svg">
<path d="M3 5C3 3.89543 3.89543 3 5 3H17C18.1046 3 19 3.89543 19 5V10C19 10.5523 18.5523 11 18 11C17.4477 11 17 10.5523 17 10V7H5V17H10C10.5523 17 11 17.4477 11 18C11 18.5523 10.5523 19 10 19H5C3.89543 19 3 18.1046 3 17V5Z" fill="currentColor" />
<path d="M9 9H7V11H9V9Z" fill="currentColor" />
<path d="M14 11H12C11.45 11 11 10.55 11 10C11 9.45 11.45 9 12 9H14C14.55 9 15 9.45 15 10C15 10.55 14.55 11 14 11Z" fill="currentColor" />
<path d="M14 15H12C11.45 15 11 14.55 11 14C11 13.45 11.45 13 12 13H14C14.55 13 15 13.45 15 14C15 14.55 14.55 15 14 15Z" fill="currentColor" />
<path d="M9 13H7V15H9V13Z" fill="currentColor" />
<path d="M19 14V17H22C22.55 17 23 17.45 23 18C23 18.55 22.55 19 22 19H19V22C19 22.55 18.55 23 18 23C17.45 23 17 22.55 17 22V19H14C13.45 19 13 18.55 13 18C13 17.45 13.45 17 14 17H17V14C17 13.45 17.45 13 18 13C18.55 13 19 13.45 19 14Z" fill="currentColor" />
</svg>
