<svg width="24" height="24" viewBox="0 0 24 24" fill="none" xmlns="http://www.w3.org/2000/svg">
<path d="M4 10C4 10.55 4.45 11 5 11H19C19.55 11 20 10.55 20 10C20 9.45 19.55 9 19 9H5C4.45 9 4 9.45 4 10Z" fill="currentColor" />
<path d="M14.7899 4H12.9999V2C12.9999 1.45 12.5499 1 11.9999 1C11.4499 1 10.9999 1.45 10.9999 2V4H9.20994C8.75994 4 8.53994 4.54 8.84994 4.85L11.6399 7.64C11.8399 7.84 12.1499 7.84 12.3499 7.64L15.1399 4.85C15.4599 4.54 15.2399 4 14.7899 4Z" fill="currentColor" />
<path d="M9.20994 19H10.9999V21C10.9999 21.55 11.4499 22 11.9999 22C12.5499 22 12.9999 21.55 12.9999 21V19H14.7899C15.2399 19 15.4599 18.46 15.1399 18.15L12.3499 15.36C12.1499 15.16 11.8399 15.16 11.6399 15.36L8.84994 18.15C8.53994 18.46 8.75994 19 9.20994 19Z" fill="currentColor" />
<path d="M5 14H19C19.55 14 20 13.55 20 13C20 12.45 19.55 12 19 12H5C4.45 12 4 12.45 4 13C4 13.55 4.45 14 5 14Z" fill="currentColor" />
</svg>
