<svg width="24" height="24" viewBox="0 0 24 24" fill="none" xmlns="http://www.w3.org/2000/svg">
<path d="M10.504 20C11.054 20 11.504 19.55 11.504 19L11.504 5C11.504 4.45 11.054 4 10.504 4C9.95403 4 9.50403 4.45 9.50403 5L9.50403 19C9.50403 19.55 9.95403 20 10.504 20Z" fill="currentColor" />
<path d="M14.504 19L14.504 5C14.504 4.45 14.054 4 13.504 4C12.954 4 12.504 4.45 12.504 5L12.504 19C12.504 19.55 12.954 20 13.504 20C14.054 20 14.504 19.55 14.504 19Z" fill="currentColor" />
<path d="M19.5014 14.7963L19.5014 13.0063L21.5014 13.0063C22.0514 13.0063 22.5014 12.5563 22.5014 12.0063C22.5014 11.4563 22.0514 11.0063 21.5014 11.0063L19.5014 11.0063L19.5014 9.21629C19.5014 8.76629 18.9614 8.54629 18.6514 8.86628L15.8614 11.6563C15.6614 11.8563 15.6614 12.1663 15.8614 12.3663L18.6514 15.1563C18.9614 15.4663 19.5014 15.2463 19.5014 14.7963Z" fill="currentColor" />
<path d="M4.5 9.18864L4.5 10.9786L2.5 10.9786C1.95 10.9786 1.5 11.4286 1.5 11.9786C1.5 12.5286 1.95 12.9786 2.5 12.9786L4.5 12.9786L4.5 14.7686C4.5 15.2186 5.04 15.4386 5.35 15.1286L8.14 12.3386C8.34 12.1386 8.34 11.8286 8.14 11.6286L5.35 8.83864C5.04 8.51864 4.5 8.73864 4.5 9.18864Z" fill="currentColor" />
</svg>
