<svg width="24" height="24" viewBox="0 0 24 24" fill="none" xmlns="http://www.w3.org/2000/svg">
<path fill-rule="evenodd" clip-rule="evenodd" d="M20 4H4V20H20V4ZM4 2C2.89543 2 2 2.89543 2 4V20C2 21.1046 2.89543 22 4 22H20C21.1046 22 22 21.1046 22 20V4C22 2.89543 21.1046 2 20 2H4Z" fill="currentColor" />
<path d="M13.0825 8.08252H14.6725L12.2925 10.4625C11.9025 10.8525 11.9025 11.4825 12.2925 11.8725C12.6825 12.2625 13.3125 12.2625 13.7025 11.8725L16.0825 9.49252V11.0825C16.0825 11.6325 16.5325 12.0825 17.0825 12.0825C17.6325 12.0825 18.0825 11.6325 18.0825 11.0825V7.08252C18.0825 6.53252 17.6325 6.08252 17.0825 6.08252H13.0825C12.5325 6.08252 12.0825 6.53252 12.0825 7.08252C12.0825 7.63252 12.5325 8.08252 13.0825 8.08252Z" fill="currentColor" />
<path d="M11 16.0825L9.41002 16.0825L11.79 13.7025C12.18 13.3125 12.18 12.6825 11.79 12.2925C11.4 11.9025 10.77 11.9025 10.38 12.2925L8.00002 14.6725L8.00002 13.0825C8.00002 12.5325 7.55002 12.0825 7.00002 12.0825C6.45002 12.0825 6.00002 12.5325 6.00002 13.0825L6.00002 17.0825C6.00002 17.6325 6.45002 18.0825 7.00002 18.0825L11 18.0825C11.55 18.0825 12 17.6325 12 17.0825C12 16.5325 11.55 16.0825 11 16.0825Z" fill="currentColor" />
</svg>
