<svg width="24" height="24" viewBox="0 0 24 24" fill="none" xmlns="http://www.w3.org/2000/svg">
<path d="M20 19L20 5C20 4.45 20.45 4 21 4C21.55 4 22 4.45 22 5L22 19C22 19.55 21.55 20 21 20C20.45 20 20 19.55 20 19ZM2 19L2 5C2 4.45 2.45 4 3 4C3.55 4 4 4.45 4 5L4 19C4 19.55 3.55 20 3 20C2.45 20 2 19.55 2 19ZM9 11L9 9.21C9 8.76 8.46 8.54 8.15 8.86L5.36 11.65C5.16 11.85 5.16 12.16 5.36 12.36L8.15 15.15C8.46 15.46 9 15.24 9 14.79L9 13L15 13L15 14.79C15 15.24 15.54 15.46 15.85 15.14L18.64 12.35C18.84 12.15 18.84 11.84 18.64 11.64L15.85 8.85C15.54 8.54 15 8.76 15 9.2L15 11L9 11Z" fill="currentColor" />
</svg>
