<svg width="24" height="24" viewBox="0 0 24 24" fill="none" xmlns="http://www.w3.org/2000/svg">
<path fill-rule="evenodd" clip-rule="evenodd" d="M4 2C2.89543 2 2 2.89543 2 4V20C2 21.1046 2.89543 22 4 22H20C21.1046 22 22 21.1046 22 20V4C22 2.89543 21.1046 2 20 2H4ZM15.4725 7.3L14.0225 5.85C13.7125 5.54 13.9325 5 14.3825 5H18.6725C18.9525 5 19.1725 5.22 19.1725 5.5V9.79C19.1725 10.24 18.6325 10.46 18.3225 10.15L16.8725 8.7L14.7125 10.88C14.3225 11.27 13.6825 11.27 13.2925 10.88C12.9025 10.49 12.9025 9.85 13.2925 9.46L15.4725 7.3ZM10.15 18.3225L8.7 16.8725L10.88 14.7125C11.27 14.3225 11.27 13.6825 10.88 13.2925C10.49 12.9025 9.85 12.9025 9.46 13.2925L7.3 15.4725L5.85 14.0225C5.54 13.7125 5 13.9325 5 14.3825V18.6725C5 18.9525 5.22 19.1725 5.5 19.1725H9.79C10.24 19.1725 10.46 18.6325 10.15 18.3225Z" fill="currentColor" />
</svg>
