<svg width="24" height="24" viewBox="0 0 24 24" fill="none" xmlns="http://www.w3.org/2000/svg">
<path d="M4 14C3.45 14 3 14.45 3 15V18C3 19.1 3.9 20 5 20H8C8.55 20 9 19.55 9 19C9 18.45 8.55 18 8 18H6C5.45 18 5 17.55 5 17V15C5 14.45 4.55 14 4 14ZM5 7C5 6.45 5.45 6 6 6H8C8.55 6 9 5.55 9 5C9 4.45 8.55 4 8 4H5C3.9 4 3 4.9 3 6V9C3 9.55 3.45 10 4 10C4.55 10 5 9.55 5 9V7ZM19 4H16C15.45 4 15 4.45 15 5C15 5.55 15.45 6 16 6H18C18.55 6 19 6.45 19 7V9C19 9.55 19.45 10 20 10C20.55 10 21 9.55 21 9V6C21 4.9 20.1 4 19 4ZM19 17C19 17.55 18.55 18 18 18H16C15.45 18 15 18.45 15 19C15 19.55 15.45 20 16 20H19C20.1 20 21 19.1 21 18V15C21 14.45 20.55 14 20 14C19.45 14 19 14.45 19 15V17Z" fill="currentColor" />
</svg>
