<svg width="24" height="24" viewBox="0 0 24 24" fill="none" xmlns="http://www.w3.org/2000/svg">
<path d="M2.99998 8.00001C2.99998 8.55001 3.44998 9.00001 3.99998 9.00001H7.99998C8.54998 9.00001 8.99998 8.55001 8.99998 8.00001V4.00001C8.99998 3.45001 8.54998 3.00001 7.99998 3.00001C7.44998 3.00001 6.99998 3.45001 6.99998 4.00001V5.59001L4.61998 3.21001C4.22998 2.82001 3.59998 2.82001 3.20998 3.21001C2.81998 3.60001 2.81998 4.23001 3.20998 4.62001L5.58998 7.00001H3.99998C3.44998 7.00001 2.99998 7.45001 2.99998 8.00001ZM20 7.00001H18.41L20.79 4.62001C21.18 4.23001 21.18 3.60001 20.79 3.21001C20.4 2.82001 19.77 2.82001 19.38 3.21001L17 5.59001V4.00001C17 3.45001 16.55 3.00001 16 3.00001C15.45 3.00001 15 3.45001 15 4.00001V8.00001C15 8.55001 15.45 9.00001 16 9.00001H20C20.55 9.00001 21 8.55001 21 8.00001C21 7.45001 20.55 7.00001 20 7.00001ZM3.99998 17H5.58998L3.20998 19.38C2.81998 19.77 2.81998 20.4 3.20998 20.79C3.59998 21.18 4.22998 21.18 4.61998 20.79L6.99998 18.41V20C6.99998 20.55 7.44998 21 7.99998 21C8.54998 21 8.99998 20.55 8.99998 20V16C8.99998 15.45 8.54998 15 7.99998 15H3.99998C3.44998 15 2.99998 15.45 2.99998 16C2.99998 16.55 3.44998 17 3.99998 17ZM21 16C21 15.45 20.55 15 20 15H16C15.45 15 15 15.45 15 16V20C15 20.55 15.45 21 16 21C16.55 21 17 20.55 17 20V18.41L19.38 20.79C19.77 21.18 20.4 21.18 20.79 20.79C21.18 20.4 21.18 19.77 20.79 19.38L18.41 17H20C20.55 17 21 16.55 21 16Z" fill="currentColor" />
</svg>
