<svg width="24" height="24" viewBox="0 0 24 24" fill="none" xmlns="http://www.w3.org/2000/svg">
<path fill-rule="evenodd" clip-rule="evenodd" d="M20 4H4V20H20V4ZM4 2C2.89543 2 2 2.89543 2 4V20C2 21.1046 2.89543 22 4 22H20C21.1046 22 22 21.1046 22 20V4C22 2.89543 21.1046 2 20 2H4Z" fill="currentColor" />
<path d="M7.0825 14H8.6725L6.2925 16.38C5.9025 16.77 5.9025 17.4 6.2925 17.79C6.6825 18.18 7.3125 18.18 7.7025 17.79L10.0825 15.41V17C10.0825 17.55 10.5325 18 11.0825 18C11.6325 18 12.0825 17.55 12.0825 17V13C12.0825 12.45 11.6325 12 11.0825 12H7.0825C6.5325 12 6.0825 12.45 6.0825 13C6.0825 13.55 6.5325 14 7.0825 14Z" fill="currentColor" />
<path d="M16.9175 10L15.3275 10L17.7075 7.62C18.0975 7.23 18.0975 6.6 17.7075 6.21C17.3175 5.82 16.6875 5.82 16.2975 6.21L13.9175 8.59L13.9175 7C13.9175 6.45 13.4675 6 12.9175 6C12.3675 6 11.9175 6.45 11.9175 7L11.9175 11C11.9175 11.55 12.3675 12 12.9175 12L16.9175 12C17.4675 12 17.9175 11.55 17.9175 11C17.9175 10.45 17.4675 10 16.9175 10Z" fill="currentColor" />
</svg>
