<svg width="24" height="24" viewBox="0 0 24 24" fill="none" xmlns="http://www.w3.org/2000/svg">
<path fill-rule="evenodd" clip-rule="evenodd" d="M16.5 6.5C16.5 5.11929 17.6193 4 19 4C20.3807 4 21.5 5.11929 21.5 6.5V7C21.5 7.55228 21.9477 8 22.5 8C23.0523 8 23.5 7.55228 23.5 7V6.5C23.5 4.01472 21.4853 2 19 2C16.5147 2 14.5 4.01472 14.5 6.5V12H6C4.89543 12 4 12.8954 4 14V20C4 21.1046 4.89543 22 6 22H18C19.1046 22 20 21.1046 20 20V14C20 12.8954 19.1046 12 18 12H16.5V6.5Z" fill="currentColor" />
</svg>
