<svg width="24" height="24" viewBox="0 0 24 24" fill="none" xmlns="http://www.w3.org/2000/svg">
<path d="M13.26 2.99996C8.17003 2.85996 4.00003 6.93996 4.00003 12H2.21003C1.76003 12 1.54003 12.54 1.86003 12.85L4.65003 15.64C4.85003 15.84 5.16003 15.84 5.36003 15.64L8.16003 12.85C8.46003 12.54 8.24003 12 7.79003 12H6.00003C6.00003 8.10996 9.20003 4.93996 13.1 4.99996C16.81 5.04996 19.94 8.17996 20 11.9C20.06 15.81 16.9 19 13 19C11.41 19 9.95003 18.47 8.77003 17.57C8.37003 17.27 7.81003 17.3 7.46003 17.66C7.03003 18.09 7.07003 18.8 7.55003 19.16C9.06003 20.31 10.95 21 13 21C18.06 21 22.14 16.83 22 11.75C21.87 7.04996 17.95 3.12996 13.26 2.99996ZM15 12V9.99996C15 8.89996 14.1 7.99996 13 7.99996C11.9 7.99996 11 8.89996 11 9.99996V12C10.45 12 10 12.45 10 13V15C10 15.55 10.45 16 11 16H15C15.55 16 16 15.55 16 15V13C16 12.45 15.55 12 15 12ZM14 12H12V9.99996C12 9.44996 12.45 8.99996 13 8.99996C13.55 8.99996 14 9.44996 14 9.99996V12Z" fill="currentColor" />
</svg>
