<svg width="24" height="24" viewBox="0 0 24 24" fill="none" xmlns="http://www.w3.org/2000/svg">
<path d="M12 19C13.1046 19 14 18.1046 14 17C14 15.8954 13.1046 15 12 15C10.8954 15 10 15.8954 10 17C10 18.1046 10.8954 19 12 19Z" fill="currentColor" />
<path fill-rule="evenodd" clip-rule="evenodd" d="M12 4C13.3807 4 14.5 5.11929 14.5 6.5V12H6C4.89543 12 4 12.8954 4 14V20C4 21.1046 4.89543 22 6 22H18C19.1046 22 20 21.1046 20 20V14C20 12.8954 19.1046 12 18 12H16.5V6.5C16.5 4.01472 14.4853 2 12 2C9.51472 2 7.5 4.01472 7.5 6.5V7C7.5 7.55228 7.94772 8 8.5 8C9.05228 8 9.5 7.55228 9.5 7V6.5C9.5 5.11929 10.6193 4 12 4ZM6 14V20H18V14H6Z" fill="currentColor" />
</svg>
