<svg width="24" height="24" viewBox="0 0 24 24" fill="none" xmlns="http://www.w3.org/2000/svg">
<path d="M14 11.26V6H17V10H19V5C19 4.45 18.55 4 18 4H14C14 3.45 13.55 3 13 3H6C5.45 3 5 3.45 5 4V19H4C3.45 19 3 19.45 3 20C3 20.55 3.45 21 4 21H12.26C11.47 19.87 11 18.49 11 17C11 14.62 12.19 12.53 14 11.26ZM10 12C10 11.45 10.45 11 11 11C11.55 11 12 11.45 12 12C12 12.55 11.55 13 11 13C10.45 13 10 12.55 10 12Z" fill="currentColor" />
<path d="M19.625 15.375V14.25C19.625 13.0125 18.6125 12 17.375 12C16.1375 12 15.125 13.0125 15.125 14.25V15.375C14.5063 15.375 14 15.8812 14 16.5V19.875C14 20.4938 14.5063 21 15.125 21H19.625C20.2438 21 20.75 20.4938 20.75 19.875V16.5C20.75 15.8812 20.2438 15.375 19.625 15.375ZM18.5 15.375H16.25V14.25C16.25 13.6313 16.7563 13.125 17.375 13.125C17.9938 13.125 18.5 13.6313 18.5 14.25V15.375Z" fill="currentColor" />
</svg>
