<svg width="24" height="24" viewBox="0 0 24 24" fill="none" xmlns="http://www.w3.org/2000/svg">
<path d="M20.5899 10H12.6499C11.6999 7.31 8.88994 5.5 5.76994 6.12C3.47994 6.58 1.61994 8.42 1.13994 10.7C0.31994 14.58 3.25994 18 6.99994 18C9.60994 18 11.8299 16.33 12.6499 14H12.9999L14.2899 15.29C14.6799 15.68 15.3099 15.68 15.6999 15.29L16.9999 14L18.2899 15.29C18.6799 15.68 19.3199 15.68 19.7099 15.29L22.2999 12.68C22.6899 12.29 22.6899 11.65 22.2899 11.26L21.2999 10.29C21.0999 10.1 20.8499 10 20.5899 10ZM6.99994 15C5.34994 15 3.99994 13.65 3.99994 12C3.99994 10.35 5.34994 9 6.99994 9C8.64994 9 9.99994 10.35 9.99994 12C9.99994 13.65 8.64994 15 6.99994 15Z" fill="currentColor" />
</svg>
