<svg width="24" height="24" viewBox="0 0 24 24" fill="none" xmlns="http://www.w3.org/2000/svg">
<path d="M4 7H6C6.55 7 7 6.55 7 6V4C7 3.45 6.55 3 6 3H4C3.45 3 3 3.45 3 4V6C3 6.55 3.45 7 4 7ZM8 4V6C8 6.55 8.45 7 9 7H20C20.55 7 21 6.55 21 6V4C21 3.45 20.55 3 20 3H9C8.45 3 8 3.45 8 4Z" fill="currentColor" />
<path d="M14.8976 15.72C15.2876 15.33 15.9076 15.33 16.2976 15.72C16.6876 16.11 16.6876 16.73 16.2976 17.12L12.6976 20.71C12.3076 21.1 11.6776 21.1 11.2876 20.71L7.69759 17.12C7.30759 16.73 7.30759 16.11 7.69759 15.72C8.08759 15.33 8.70759 15.33 9.09759 15.72L10.9976 17.62L10.9976 10C10.9976 9.45 11.4476 9 11.9976 9C12.5476 9 12.9976 9.45 12.9976 10L12.9976 17.62L14.8976 15.72Z" fill="currentColor" />
</svg>
