<svg width="24" height="24" viewBox="0 0 24 24" fill="none" xmlns="http://www.w3.org/2000/svg">
<path d="M8.40002 6.7C8.40002 6.03726 8.93728 5.5 9.60002 5.5C10.2628 5.5 10.8 6.03726 10.8 6.7C10.8 7.36274 10.2628 7.9 9.60002 7.9C8.93728 7.9 8.40002 7.36274 8.40002 6.7Z" fill="currentColor" />
<path d="M13.2 6.7C13.2 6.03726 13.7372 5.5 14.4 5.5C15.0627 5.5 15.6 6.03726 15.6 6.7C15.6 7.36274 15.0627 7.9 14.4 7.9C13.7372 7.9 13.2 7.36274 13.2 6.7Z" fill="currentColor" />
<path d="M8.40002 17.3001C8.40002 16.6374 8.93728 16.1001 9.60002 16.1001C10.2628 16.1001 10.8 16.6374 10.8 17.3001C10.8 17.9628 10.2628 18.5001 9.60002 18.5001C8.93728 18.5001 8.40002 17.9628 8.40002 17.3001Z" fill="currentColor" />
<path d="M13.2 17.3001C13.2 16.6374 13.7372 16.1001 14.4 16.1001C15.0627 16.1001 15.6 16.6374 15.6 17.3001C15.6 17.9628 15.0627 18.5001 14.4 18.5001C13.7372 18.5001 13.2 17.9628 13.2 17.3001Z" fill="currentColor" />
<path d="M8.40002 12C8.40002 11.3373 8.93728 10.8 9.60002 10.8C10.2628 10.8 10.8 11.3373 10.8 12C10.8 12.6628 10.2628 13.2 9.60002 13.2C8.93728 13.2 8.40002 12.6628 8.40002 12Z" fill="currentColor" />
<path d="M13.2 12C13.2 11.3373 13.7372 10.8 14.4 10.8C15.0627 10.8 15.6 11.3373 15.6 12C15.6 12.6628 15.0627 13.2 14.4 13.2C13.7372 13.2 13.2 12.6628 13.2 12Z" fill="currentColor" />
</svg>
