<svg width="24" height="24" viewBox="0 0 24 24" fill="none" xmlns="http://www.w3.org/2000/svg">
<path d="M4 17.0024H6C6.55 17.0024 7 17.4524 7 18.0024V20.0024C7 20.5524 6.55 21.0024 6 21.0024H4C3.45 21.0024 3 20.5524 3 20.0024V18.0024C3 17.4524 3.45 17.0024 4 17.0024ZM8 20.0024V18.0024C8 17.4524 8.45 17.0024 9 17.0024H20C20.55 17.0024 21 17.4524 21 18.0024V20.0024C21 20.5524 20.55 21.0024 20 21.0024H9C8.45 21.0024 8 20.5524 8 20.0024Z" fill="currentColor" />
<path d="M14.8975 8.28243C15.2875 8.67243 15.9075 8.67243 16.2975 8.28243C16.6875 7.89243 16.6875 7.27243 16.2975 6.88243L12.6975 3.29243C12.3075 2.90243 11.6775 2.90243 11.2875 3.29243L7.69753 6.88243C7.30753 7.27243 7.30753 7.89243 7.69753 8.28243C8.08753 8.67243 8.70753 8.67243 9.09753 8.28243L10.9975 6.38243L10.9975 14.0024C10.9975 14.5524 11.4475 15.0024 11.9975 15.0024C12.5475 15.0024 12.9975 14.5524 12.9975 14.0024L12.9975 6.38243L14.8975 8.28243Z" fill="currentColor" />
</svg>
