<svg width="24" height="24" viewBox="0 0 24 24" fill="none" xmlns="http://www.w3.org/2000/svg">
<path d="M2 21C2 20.4477 2.44772 20 3 20H21C21.5523 20 22 20.4477 22 21V22H2V21Z" fill="currentColor" />
<path d="M3 18C3 17.4477 3.44772 17 4 17H20C20.5523 17 21 17.4477 21 18V19H3V18Z" fill="currentColor" />
<path d="M5 10C5 9.44772 5.44772 9 6 9H7C7.55228 9 8 9.44772 8 10V17H5V10Z" fill="currentColor" />
<path d="M16 10C16 9.44772 16.4477 9 17 9H18C18.5523 9 19 9.44772 19 10V17H16V10Z" fill="currentColor" />
<path d="M10.5 10C10.5 9.44772 10.9477 9 11.5 9H12.5C13.0523 9 13.5 9.44772 13.5 10V17H10.5V10Z" fill="currentColor" />
<path d="M20.4471 8.00001H3.55302C2.48076 8.00001 2.16039 6.54139 3.13397 6.09205L11.581 2.19342C11.8469 2.0707 12.1532 2.0707 12.4191 2.19342L20.8661 6.09205C21.8397 6.54139 21.5193 8.00001 20.4471 8.00001Z" fill="currentColor" />
</svg>
