<svg width="24" height="24" viewBox="0 0 24 24" fill="none" xmlns="http://www.w3.org/2000/svg">
<path d="M18 10H15V12H18V10Z" fill="currentColor" />
<path d="M18 17H15V19H18V17Z" fill="currentColor" />
<path d="M15 13.5H18V15.5H15V13.5Z" fill="currentColor" />
<path fill-rule="evenodd" clip-rule="evenodd" d="M2 5.70453C2 5.28191 2.26567 4.90493 2.66366 4.76279L14.6637 0.477073C15.3149 0.244485 16 0.727282 16 1.41881V6.44867L21.2783 7.97817C21.7058 8.10205 22 8.49356 22 8.93865V20.9998C22 21.5521 21.5523 21.9998 21 21.9998H12C11.8916 21.9998 11.7872 21.9826 11.6895 21.9507C11.7867 21.9824 11.8903 21.9996 11.998 21.9998H3C2.44772 21.9998 2 21.5521 2 20.9998V5.70453ZM4 9.00002H11V11H4V9.00002ZM4 12.5H11V14.5H4V12.5ZM4 16H11V18H4V16ZM13 7.66161V19.9998H20V9.69002L13 7.66161Z" fill="currentColor" />
</svg>
