<svg width="24" height="24" viewBox="0 0 24 24" fill="none" xmlns="http://www.w3.org/2000/svg">
<path fill-rule="evenodd" clip-rule="evenodd" d="M3.55302 8.00001H20.4471C21.5193 8.00001 21.8397 6.54139 20.8661 6.09205L12.4191 2.19342C12.1532 2.0707 11.8469 2.0707 11.581 2.19342L3.13397 6.09205C2.16039 6.54139 2.48076 8.00001 3.55302 8.00001ZM6 9C5.44772 9 5 9.44772 5 10V17H4C3.44772 17 3 17.4477 3 18V19H11.1739C11.0602 18.5185 11 18.0163 11 17.5C11 15.4187 11.9782 13.5658 13.5 12.3762V10C13.5 9.44772 13.0523 9 12.5 9H11.5C10.9477 9 10.5 9.44772 10.5 10V17H8V10C8 9.44772 7.55228 9 7 9H6ZM16 11.1739C16.4815 11.0602 16.9837 11 17.5 11C18.0163 11 18.5185 11.0602 19 11.1739V10C19 9.44772 18.5523 9 18 9H17C16.4477 9 16 9.44772 16 10V11.1739ZM11.4982 20C11.8099 20.7476 12.2573 21.4245 12.8096 22H2V21C2 20.4477 2.44772 20 3 20H11.4982Z" fill="currentColor" />
<path fill-rule="evenodd" clip-rule="evenodd" d="M17.5 23C20.5376 23 23 20.5376 23 17.5C23 14.4624 20.5376 12 17.5 12C14.4624 12 12 14.4624 12 17.5C12 20.5376 14.4624 23 17.5 23ZM16.2555 15.016V18.748H17.3733C17.6465 18.748 17.7893 19.0833 17.5906 19.2758L15.8581 21.0021C15.7339 21.1201 15.5414 21.1201 15.4172 21.0021L13.6847 19.2758C13.486 19.0833 13.6226 18.748 13.902 18.748H15.0136L15.0136 15.016C15.0136 14.6744 15.293 14.395 15.6345 14.395C15.9761 14.395 16.2555 14.6744 16.2555 15.016ZM18.9257 16.252H17.8141C17.5347 16.252 17.3981 15.9167 17.5906 15.7242L19.3231 13.9979C19.4473 13.8799 19.6398 13.8799 19.764 13.9979L21.4965 15.7242C21.6952 15.9167 21.5586 16.252 21.2792 16.252H20.1676V19.984C20.1676 20.3256 19.8882 20.605 19.5467 20.605C19.2051 20.605 18.9257 20.3256 18.9257 19.984V16.252Z" fill="currentColor" />
</svg>
