<svg width="24" height="24" viewBox="0 0 24 24" fill="none" xmlns="http://www.w3.org/2000/svg">
<path fill-rule="evenodd" clip-rule="evenodd" d="M11.2125 2.12706L4.4625 4.39107C3.585 4.69294 3 5.43754 3 6.28277V11.0221C3 16.1035 6.83625 20.8428 12 22C17.1637 20.8428 21 16.1035 21 11.0221V6.28277C21 5.4476 20.415 4.69294 19.5375 4.40113L12.7875 2.13713C12.2812 1.956 11.7188 1.956 11.2125 2.12706ZM15.7407 7.18782C15.6623 7.28804 15.5812 7.39183 15.5 7.5H8.5C8.41885 7.39183 8.33769 7.28803 8.25933 7.18782C7.91524 6.74777 7.625 6.37658 7.625 6.00539C8.5 5.09393 11.125 4 12 4C12.875 4 15.5 5.09393 16.375 6.00539C16.375 6.37658 16.0848 6.74777 15.7407 7.18782ZM12 6.2785C12.3624 6.2785 12.6562 5.97245 12.6562 5.59491C12.6562 5.21737 12.3624 4.91132 12 4.91132C11.6376 4.91132 11.3438 5.21737 11.3438 5.59491C11.3438 5.97245 11.6376 6.2785 12 6.2785ZM8.53174 8.375C8.74407 9.26519 10.4567 9.42517 12.0002 9.42517C13.5437 9.42517 15.2564 9.26519 15.4687 8.375H8.53174ZM11.9998 10.65C13.299 10.65 14.488 10.4298 15.4047 10.0649C15.0374 11.6049 13.6524 12.75 12 12.75C10.3477 12.75 8.96278 11.605 8.59546 10.0651C9.51208 10.4298 10.7009 10.65 11.9998 10.65ZM11.9999 14.5C13.6075 14.5 16.317 15.0551 17.8509 16.1597C16.5178 18.1401 14.4131 19.657 11.9401 20.2C9.49157 19.6624 7.40414 18.1701 6.06913 16.2185C7.58718 15.0748 10.3641 14.5 11.9999 14.5Z" fill="currentColor" />
</svg>
