<svg width="24" height="24" viewBox="0 0 24 24" fill="none" xmlns="http://www.w3.org/2000/svg">
<path d="M5.75397 13.3999C4.02349 13.3999 2.62067 14.8027 2.62067 16.5332C2.62067 17.5885 3.14238 18.522 3.94196 19.0897C2.70293 19.5984 1.70454 20.6179 1.24475 21.9364C1.15944 22.181 1.19789 22.4518 1.34794 22.6631C1.49798 22.8743 1.74103 22.9998 2.00013 22.9998H9.51028C9.76938 22.9998 10.0124 22.8743 10.1625 22.6631C10.3125 22.4518 10.351 22.181 10.2657 21.9364C9.80568 20.6173 8.80664 19.5976 7.56689 19.0891C8.36595 18.5213 8.88727 17.5881 8.88727 16.5332C8.88727 14.8027 7.48444 13.3999 5.75397 13.3999Z" fill="currentColor" />
<path d="M18.2445 13.3999C16.514 13.3999 15.1112 14.8027 15.1112 16.5332C15.1112 17.5882 15.6326 18.5214 16.4318 19.0892C15.1922 19.5978 14.1933 20.6175 13.7334 21.9364C13.6481 22.181 13.6865 22.4518 13.8366 22.6631C13.9866 22.8743 14.2297 22.9998 14.4888 22.9998H21.9989C22.258 22.9998 22.5011 22.8743 22.6511 22.6631C22.8012 22.4518 22.8396 22.181 22.7543 21.9364C22.2945 20.6178 21.2959 19.5982 20.0567 19.0896C20.8562 18.5218 21.3778 17.5884 21.3778 16.5332C21.3778 14.8027 19.975 13.3999 18.2445 13.3999Z" fill="currentColor" />
<path fill-rule="evenodd" clip-rule="evenodd" d="M9 11.2002H15C16.1 11.2002 17 10.3002 17 9.2002V3.2002C17 2.10019 16.1 1.2002 15 1.2002H9C7.9 1.2002 7 2.10019 7 3.2002V9.2002C7 10.3002 7.9 11.2002 9 11.2002ZM14 7.2002H10C9.45 7.2002 9 7.6502 9 8.2002C9 8.7502 9.45 9.2002 10 9.2002H14C14.55 9.2002 15 8.7502 15 8.2002C15 7.6502 14.55 7.2002 14 7.2002ZM14 3.2002H10C9.45 3.2002 9 3.6502 9 4.2002C9 4.7502 9.45 5.2002 10 5.2002H14C14.55 5.2002 15 4.7502 15 4.2002C15 3.6502 14.55 3.2002 14 3.2002Z" fill="currentColor" />
<path fill-rule="evenodd" clip-rule="evenodd" d="M2.5 12C3.05228 12 3.5 11.5523 3.5 11V8C3.5 7.44772 3.94772 7 4.5 7H5C5.55228 7 6 6.55228 6 6C6 5.44772 5.55228 5 5 5H4.5C2.84315 5 1.5 6.34315 1.5 8V11C1.5 11.5523 1.94772 12 2.5 12Z" fill="currentColor" />
<path fill-rule="evenodd" clip-rule="evenodd" d="M21.5 12C20.9477 12 20.5 11.5523 20.5 11V8C20.5 7.44772 20.0523 7 19.5 7H19C18.4477 7 18 6.55228 18 6C18 5.44772 18.4477 5 19 5H19.5C21.1569 5 22.5 6.34315 22.5 8V11C22.5 11.5523 22.0523 12 21.5 12Z" fill="currentColor" />
</svg>
