<svg width="24" height="24" viewBox="0 0 24 24" fill="none" xmlns="http://www.w3.org/2000/svg">
<path fill-rule="evenodd" clip-rule="evenodd" d="M2.62069 4.33325C2.62069 2.60278 4.02352 1.19995 5.75399 1.19995C7.48447 1.19995 8.8873 2.60278 8.8873 4.33325C8.8873 5.38826 8.36588 6.32148 7.56669 6.88928C8.80653 7.39777 9.80565 8.41754 10.2657 9.73665C10.351 9.9813 10.3125 10.2521 10.1625 10.4633C10.0124 10.6746 9.76938 10.8001 9.51028 10.8001H2.00013C1.74103 10.8001 1.49798 10.6746 1.34794 10.4633C1.19789 10.2521 1.15944 9.9813 1.24475 9.73665C1.70457 8.41809 2.70305 7.39861 3.94219 6.88991C3.14249 6.32217 2.62069 5.38865 2.62069 4.33325ZM5.75399 2.79993C4.90717 2.79993 4.22068 3.48642 4.22068 4.33325C4.22068 5.18008 4.90717 5.86657 5.75399 5.86657C6.60082 5.86657 7.28731 5.18008 7.28731 4.33325C7.28731 3.48642 6.60082 2.79993 5.75399 2.79993ZM5.75521 8.13269C6.68246 8.13269 7.54008 8.5352 8.1308 9.20007H3.37961C3.97033 8.5352 4.82795 8.13269 5.75521 8.13269Z" fill="currentColor" />
<path fill-rule="evenodd" clip-rule="evenodd" d="M11.9992 13.1998C10.2688 13.1998 8.86594 14.6027 8.86594 16.3331C8.86594 17.3887 9.38794 18.3224 10.1879 18.8901C8.94846 19.3984 7.94954 20.4176 7.48926 21.736C7.34364 22.1532 7.56374 22.6094 7.98088 22.755C8.39801 22.9006 8.85422 22.6805 8.99984 22.2634C9.4451 20.988 10.6483 20.1336 11.9992 20.1336C13.3501 20.1336 14.5533 20.988 14.9985 22.2634C15.1441 22.6805 15.6003 22.9006 16.0175 22.755C16.4346 22.6094 16.6547 22.1532 16.5091 21.736C16.0488 20.4176 15.0499 19.3984 13.8105 18.8902C14.6105 18.3224 15.1325 17.3888 15.1325 16.3331C15.1325 14.6027 13.7297 13.1998 11.9992 13.1998ZM10.4659 16.3331C10.4659 15.4863 11.1524 14.7998 11.9992 14.7998C12.8461 14.7998 13.5326 15.4863 13.5326 16.3331C13.5326 17.18 12.8461 17.8664 11.9992 17.8664C11.1524 17.8664 10.4659 17.18 10.4659 16.3331Z" fill="currentColor" />
<path fill-rule="evenodd" clip-rule="evenodd" d="M15.1112 4.33325C15.1112 2.60278 16.514 1.19995 18.2445 1.19995C19.975 1.19995 21.3778 2.60278 21.3778 4.33325C21.3778 5.38855 20.8561 6.322 20.0565 6.88976C21.2958 7.3984 22.2945 8.41795 22.7543 9.73665C22.8396 9.9813 22.8012 10.2521 22.6512 10.4633C22.5011 10.6746 22.2581 10.8001 21.999 10.8001H14.4888C14.2297 10.8001 13.9867 10.6746 13.8366 10.4633C13.6866 10.2521 13.6481 9.9813 13.7334 9.73665C14.1934 8.41768 15.1923 7.39798 16.432 6.88944C15.6327 6.32165 15.1112 5.38836 15.1112 4.33325ZM18.2445 2.79993C17.3977 2.79993 16.7112 3.48642 16.7112 4.33325C16.7112 5.18008 17.3977 5.86657 18.2445 5.86657C19.0913 5.86657 19.7778 5.18008 19.7778 4.33325C19.7778 3.48642 19.0913 2.79993 18.2445 2.79993ZM18.2439 8.13269C19.1711 8.13269 20.0288 8.5352 20.6195 9.20007H15.8683C16.459 8.5352 17.3166 8.13269 18.2439 8.13269Z" fill="currentColor" />
<path d="M4.66598 11.8665C5.10781 11.8665 5.46598 12.2247 5.46598 12.6665V15.9998C5.46598 16.6625 6.00323 17.1998 6.66597 17.1998H7.33262C7.77445 17.1998 8.13262 17.558 8.13262 17.9998C8.13262 18.4416 7.77445 18.7998 7.33262 18.7998H6.66597C5.11958 18.7998 3.86599 17.5462 3.86599 15.9998V12.6665C3.86599 12.2247 4.22416 11.8665 4.66598 11.8665Z" fill="currentColor" />
<path d="M20.1325 12.6665C20.1325 12.2247 19.7743 11.8665 19.3325 11.8665C18.8907 11.8665 18.5325 12.2247 18.5325 12.6665V15.9998C18.5325 16.6625 17.9953 17.1998 17.3325 17.1998H16.6659C16.224 17.1998 15.8659 17.558 15.8659 17.9998C15.8659 18.4416 16.224 18.7998 16.6659 18.7998H17.3325C18.8789 18.7998 20.1325 17.5462 20.1325 15.9998V12.6665Z" fill="currentColor" />
</svg>
