<svg width="24" height="24" viewBox="0 0 24 24" fill="none" xmlns="http://www.w3.org/2000/svg">
<path d="M18.0006 12.3999C16.481 12.3999 15.2491 13.6318 15.2491 15.1514C15.2491 16.0778 15.707 16.8973 16.4088 17.3959C15.3202 17.8425 14.4431 18.7379 14.0392 19.8961C13.9643 20.111 13.998 20.3488 14.1298 20.5343C14.2616 20.7198 14.475 20.83 14.7025 20.83H21.2975C21.525 20.83 21.7384 20.7198 21.8702 20.5343C22.002 20.3488 22.0357 20.111 21.9608 19.8961C21.557 18.7382 20.6802 17.8429 19.592 17.3962C20.294 16.8977 20.7521 16.078 20.7521 15.1514C20.7521 13.6318 19.5202 12.3999 18.0006 12.3999Z" fill="currentColor" />
<path fill-rule="evenodd" clip-rule="evenodd" d="M5 3H13C14.1 3 15 3.9 15 5V11C15 12.1 14.1 13 13 13H5C3.9 13 3 12.1 3 11V5C3 3.9 3.9 3 5 3ZM12 7H6C5.45 7 5 6.55 5 6C5 5.45 5.45 5 6 5H12C12.55 5 13 5.45 13 6C13 6.55 12.55 7 12 7ZM12 11H6C5.45 11 5 10.55 5 10C5 9.45 5.45 9 6 9H12C12.55 9 13 9.45 13 10C13 10.55 12.55 11 12 11Z" fill="currentColor" />
<path fill-rule="evenodd" clip-rule="evenodd" d="M9 14C9.55228 14 10 14.4477 10 15V18C10 18.5523 10.4477 19 11 19H11.5C12.0523 19 12.5 19.4477 12.5 20C12.5 20.5523 12.0523 21 11.5 21H11C9.34315 21 8 19.6569 8 18V15C8 14.4477 8.44772 14 9 14Z" fill="currentColor" />
</svg>
