<svg width="24" height="24" viewBox="0 0 24 24" fill="none" xmlns="http://www.w3.org/2000/svg">
<path d="M17 11.0001C17.34 11.0001 17.67 11.0401 18 11.0901V7.58006C18 6.78006 17.53 6.06006 16.8 5.75006L11.3 3.35006C10.79 3.13006 10.21 3.13006 9.7 3.35006L4.2 5.75006C3.47 6.07006 3 6.79006 3 7.58006V11.1801C3 15.7201 6.2 19.9701 10.5 21.0001C11.05 20.8701 11.58 20.6801 12.1 20.4501C11.41 19.4701 11 18.2801 11 17.0001C11 13.6901 13.69 11.0001 17 11.0001Z" fill="currentColor" />
<path d="M17 13.0001C14.79 13.0001 13 14.7901 13 17.0001C13 19.2101 14.79 21.0001 17 21.0001C19.21 21.0001 21 19.2101 21 17.0001C21 14.7901 19.21 13.0001 17 13.0001ZM17 14.3801C17.62 14.3801 18.12 14.8901 18.12 15.5001C18.12 16.1101 17.61 16.6201 17 16.6201C16.39 16.6201 15.88 16.1101 15.88 15.5001C15.88 14.8901 16.38 14.3801 17 14.3801ZM17 19.7501C16.07 19.7501 15.26 19.2901 14.76 18.5801C14.81 17.8601 16.27 17.5001 17 17.5001C17.73 17.5001 19.19 17.8601 19.24 18.5801C18.74 19.2901 17.93 19.7501 17 19.7501Z" fill="currentColor" />
</svg>
