<svg width="24" height="24" viewBox="0 0 24 24" fill="none" xmlns="http://www.w3.org/2000/svg">
<path fill-rule="evenodd" clip-rule="evenodd" d="M10.5645 2.30769C10.5645 1.03174 11.5962 0 12.8721 0C13.8643 0 14.7088 0.623859 15.0354 1.50129C15.4423 1.14136 15.9776 0.923077 16.5645 0.923077C17.8404 0.923077 18.8721 1.95481 18.8721 3.23077V4.15278C19.2576 3.86355 19.7369 3.69231 20.2568 3.69231C21.5327 3.69231 22.5645 4.72404 22.5645 6V19.3846C22.5645 21.9344 20.4989 24 17.9491 24H11.2106C9.96639 24 8.78693 23.5038 7.92044 22.6152C7.91982 22.6146 7.91921 22.6139 7.91859 22.6133L1.6657 16.259C0.749796 15.3398 0.793465 13.863 1.70751 12.9794L1.71038 12.9766C2.44833 12.2694 3.55839 12.1312 4.44863 12.6377L4.44949 12.6382L6.87214 14.02V5.07692C6.87214 3.80097 7.90388 2.76923 9.17984 2.76923C9.69966 2.76923 10.1789 2.94047 10.5645 3.2297V2.30769ZM12.8721 1.84615C12.6158 1.84615 12.4106 2.05134 12.4106 2.30769V10.6062C12.4106 11.3744 11.7943 11.9908 11.026 11.9908C10.2577 11.9908 9.64137 11.3744 9.64137 10.6062V5.07692C9.64137 4.82057 9.43619 4.61538 9.17984 4.61538C8.92348 4.61538 8.7183 4.82057 8.7183 5.07692V15.6092C8.7183 15.9382 8.54327 16.2422 8.25885 16.4074C7.97443 16.5726 7.62358 16.574 7.33787 16.411L3.53566 14.2423C3.5355 14.2422 3.53582 14.2424 3.53566 14.2423C3.35581 14.1402 3.13725 14.1674 2.9892 14.3081C2.79799 14.4945 2.80423 14.7867 2.97409 14.9565L2.97934 14.9618L9.24109 21.3252C9.75904 21.8569 10.4619 22.1538 11.2106 22.1538H17.9491C19.4793 22.1538 20.7183 20.9148 20.7183 19.3846V6C20.7183 5.74365 20.5131 5.53846 20.2568 5.53846C20.0004 5.53846 19.7952 5.74365 19.7952 6V10.6154C19.7952 11.3836 19.1789 12 18.4106 12C17.6423 12 17.026 11.3836 17.026 10.6154V3.23077C17.026 2.97442 16.8208 2.76923 16.5645 2.76923C16.3081 2.76923 16.1029 2.97442 16.1029 3.23077V10.6154C16.1029 11.3836 15.4866 12 14.7183 12C13.95 12 13.3337 11.3836 13.3337 10.6154V2.30769C13.3337 2.05134 13.1285 1.84615 12.8721 1.84615Z" fill="currentColor" />
</svg>
