<svg width="24" height="24" viewBox="0 0 24 24" fill="none" xmlns="http://www.w3.org/2000/svg">
<path fill-rule="evenodd" clip-rule="evenodd" d="M19 11H20.5C21.88 11 23 12.12 23 13.5C23 14.88 21.88 16 20.5 16H19V20C19 21.1 18.1 22 17 22H13.2V20.5C13.2 19.01 11.99 17.8 10.5 17.8C9.01 17.8 7.8 19.01 7.8 20.5V22H4C2.9 22 2 21.1 2 20V16.2H3.5C4.99 16.2 6.2 14.99 6.2 13.5C6.2 12.01 4.99 10.8 3.5 10.8H2.01V7C2.01 5.9 2.9 5 4 5H8V3.5C8 2.12 9.12 1 10.5 1C11.88 1 13 2.12 13 3.5V5H17C18.1 5 19 5.9 19 7V11ZM8 8H15C15.55 8 16 8.45 16 9C16 9.55 15.55 10 15 10H8C7.45 10 7 9.55 7 9C7 8.45 7.45 8 8 8ZM15 13H12C11.45 13 11 12.55 11 12C11 11.45 11.45 11 12 11H15C15.55 11 16 11.45 16 12C16 12.55 15.55 13 15 13Z" fill="currentColor" />
</svg>
