<svg width="24" height="24" viewBox="0 0 24 24" fill="none" xmlns="http://www.w3.org/2000/svg">
<path d="M13 9.00002V7.41002C13 6.52002 11.92 6.07002 11.29 6.70002L6.7 11.29C6.31 11.68 6.31 12.31 6.7 12.7L11.29 17.29C11.92 17.92 13 17.47 13 16.58V14.9C18 14.9 21.5 16.5 24 20C23 15 20 10 13 9.00002Z" fill="currentColor" />
<path d="M6.99998 7.56004C6.99998 6.62004 5.85998 6.14004 5.18998 6.81004L0.70998 11.29C0.31998 11.68 0.31998 12.31 0.70998 12.7L5.18998 17.18C5.85998 17.86 6.99998 17.38 6.99998 16.44C6.99998 16.16 6.88998 15.89 6.68998 15.69L2.99998 12L6.68998 8.31004C6.88998 8.11004 6.99998 7.84004 6.99998 7.56004Z" fill="currentColor" />
</svg>
