<svg width="24" height="24" viewBox="0 0 24 24" fill="none" xmlns="http://www.w3.org/2000/svg">
<path fill-rule="evenodd" clip-rule="evenodd" d="M13.7483 4.0878C12.9863 2.71618 11.0137 2.71618 10.2517 4.0878L1.95122 19.0287C1.21063 20.3617 2.17456 22 3.69953 22H20.3005C21.8255 22 22.7894 20.3617 22.0488 19.0287L13.7483 4.0878ZM12 5.05908L20.3005 20H3.69953L12 5.05908ZM12 8.69998C12.55 8.69998 13 9.14998 13 9.69998V13.7C13 14.25 12.55 14.7 12 14.7C11.45 14.7 11 14.25 11 13.7V9.69998C11 9.14998 11.45 8.69998 12 8.69998ZM13.2 17.7C13.2 18.3627 12.6627 18.9 12 18.9C11.3372 18.9 10.8 18.3627 10.8 17.7C10.8 17.0372 11.3372 16.5 12 16.5C12.6627 16.5 13.2 17.0372 13.2 17.7Z" fill="currentColor" />
</svg>
