<svg width="24" height="24" viewBox="0 0 24 24" fill="none" xmlns="http://www.w3.org/2000/svg">
<path d="M13 8C13 7.45 12.55 7 12 7C11.45 7 11 7.45 11 8V12C11 12.55 11.45 13 12 13C12.55 13 13 12.55 13 12V8Z" fill="currentColor" />
<path d="M12 17.2C12.6627 17.2 13.2 16.6627 13.2 16C13.2 15.3372 12.6627 14.8 12 14.8C11.3372 14.8 10.8 15.3372 10.8 16C10.8 16.6627 11.3372 17.2 12 17.2Z" fill="currentColor" />
<path fill-rule="evenodd" clip-rule="evenodd" d="M2 12C2 6.48 6.47 2 11.99 2C17.52 2 22 6.48 22 12C22 17.52 17.52 22 11.99 22C6.47 22 2 17.52 2 12ZM4 12C4 16.42 7.58 20 12 20C16.42 20 20 16.42 20 12C20 7.58 16.42 4 12 4C7.58 4 4 7.58 4 12Z" fill="currentColor" />
</svg>
