<svg width="24" height="24" viewBox="0 0 24 24" fill="none" xmlns="http://www.w3.org/2000/svg">
<path fill-rule="evenodd" clip-rule="evenodd" d="M12 2C6.5 2 2 6.5 2 12C2 17.5 6.5 22 12 22C17.5 22 22 17.5 22 12C22 6.5 17.5 2 12 2ZM18.4625 7.29376C18.0825 6.90376 17.4425 6.90376 17.0625 7.28376L9.6725 14.6738L6.7025 11.7038C6.3125 11.3138 5.6825 11.3138 5.2925 11.7038C4.9025 12.0938 4.9025 12.7238 5.2925 13.1138L8.9725 16.7938C9.3625 17.1838 9.9925 17.1838 10.3825 16.7938L18.4625 8.70376C18.8525 8.31376 18.8525 7.68376 18.4625 7.29376Z" fill="currentColor" />
</svg>
