<svg width="20" height="20" viewBox="0 0 20 20" fill="none" xmlns="http://www.w3.org/2000/svg">
<path d="M14.4167 5.24995C14.0917 4.92495 13.5667 4.92495 13.2417 5.24995L8.54166 9.94995L9.71666 11.125L14.4167 6.41662C14.7333 6.09995 14.7333 5.56662 14.4167 5.24995ZM17.95 5.24162L9.71666 13.475L6.81666 10.5833C6.49166 10.2583 5.96666 10.2583 5.64166 10.5833C5.31666 10.9083 5.31666 11.4333 5.64166 11.7583L9.12499 15.2416C9.44999 15.5666 9.97499 15.5666 10.3 15.2416L19.125 6.42495C19.45 6.09995 19.45 5.57495 19.125 5.24995H19.1167C18.8 4.91662 18.275 4.91662 17.95 5.24162ZM0.933325 11.7666L4.41666 15.25C4.74166 15.575 5.26666 15.575 5.59166 15.25L6.17499 14.6666L2.10833 10.5833C1.78333 10.2583 1.25833 10.2583 0.933325 10.5833C0.608325 10.9083 0.608325 11.4416 0.933325 11.7666Z" fill="currentColor" />
</svg>
