<svg width="24" height="24" viewBox="0 0 24 24" fill="none" xmlns="http://www.w3.org/2000/svg">
<path fill-rule="evenodd" clip-rule="evenodd" d="M2 12C2 6.5 6.5 2 12 2C17.5 2 22 6.5 22 12C22 17.5 17.5 22 12 22C6.5 22 2 17.5 2 12ZM13.89 8.7L12 10.59L10.11 8.7C9.71997 8.31 9.08997 8.31 8.69997 8.7C8.30997 9.09 8.30997 9.72 8.69997 10.11L10.59 12L8.69997 13.89C8.30997 14.28 8.30997 14.91 8.69997 15.3C9.08997 15.69 9.71997 15.69 10.11 15.3L12 13.41L13.89 15.3C14.28 15.69 14.91 15.69 15.3 15.3C15.69 14.91 15.69 14.28 15.3 13.89L13.41 12L15.3 10.11C15.69 9.72 15.69 9.09 15.3 8.7C14.91 8.32 14.27 8.32 13.89 8.7Z" fill="currentColor" />
</svg>
