<svg width="24" height="24" viewBox="0 0 24 24" fill="none" xmlns="http://www.w3.org/2000/svg">
<path d="M14.25 5C14.25 6.1 13.35 7 12.25 7C11.15 7 10.25 6.1 10.25 5C10.25 3.9 11.15 3 12.25 3C13.35 3 14.25 3.9 14.25 5Z" fill="currentColor" />
<path d="M8 10.25C8 9.55964 8.55964 9 9.25 9H12.25C12.9404 9 13.5 9.55964 13.5 10.25V18.5H15.25C15.9404 18.5 16.5 19.0596 16.5 19.75C16.5 20.4404 15.9404 21 15.25 21H8.75C8.05964 21 7.5 20.4404 7.5 19.75C7.5 19.0596 8.05964 18.5 8.75 18.5H11V11.5H9.25C8.55964 11.5 8 10.9404 8 10.25Z" fill="currentColor" />
</svg>
