<svg width="24" height="24" viewBox="0 0 24 24" fill="none" xmlns="http://www.w3.org/2000/svg">
<path d="M13 16C13 16.55 12.55 17 12 17C11.45 17 11 16.55 11 16V12C11 11.45 11.45 11 12 11C12.55 11 13 11.45 13 12V16Z" fill="currentColor" />
<path d="M12 6.80001C12.6627 6.80001 13.2 7.33727 13.2 8.00001C13.2 8.66275 12.6627 9.20001 12 9.20001C11.3372 9.20001 10.8 8.66275 10.8 8.00001C10.8 7.33727 11.3372 6.80001 12 6.80001Z" fill="currentColor" />
<path fill-rule="evenodd" clip-rule="evenodd" d="M2 12C2 17.52 6.47 22 11.99 22C17.52 22 22 17.52 22 12C22 6.48 17.52 2 11.99 2C6.47 2 2 6.48 2 12ZM4 12C4 7.58 7.58 4 12 4C16.42 4 20 7.58 20 12C20 16.42 16.42 20 12 20C7.58 20 4 16.42 4 12Z" fill="currentColor" />
</svg>
