<svg width="24" height="24" viewBox="0 0 24 24" fill="none" xmlns="http://www.w3.org/2000/svg">
<path d="M13.2 16.8C13.2 17.4627 12.6627 18 12 18C11.3372 18 10.8 17.4627 10.8 16.8C10.8 16.1373 11.3372 15.6 12 15.6C12.6627 15.6 13.2 16.1373 13.2 16.8Z" fill="currentColor" />
<path d="M10.5 9.5C10.5 8.67157 11.1716 8 12 8C12.8284 8 13.5 8.67157 13.5 9.5C13.5 10.1135 13.1315 10.6432 12.5996 10.8756C12.5996 10.8756 11.9945 11.1127 11.7816 11.2739C11.2913 11.645 11 12.2248 11 13V13.5C11 14.0523 11.4477 14.5 12 14.5C12.5523 14.5 13 14.0523 13 13.5V12.8556C13 12.8556 13.3224 12.7424 13.4004 12.7083C14.6344 12.1692 15.5 10.9368 15.5 9.5C15.5 7.567 13.933 6 12 6C10.067 6 8.5 7.567 8.5 9.5C8.5 10.0523 8.94772 10.5 9.5 10.5C10.0523 10.5 10.5 10.0523 10.5 9.5Z" fill="currentColor" />
<path fill-rule="evenodd" clip-rule="evenodd" d="M12 2C6.48 2 2 6.48 2 12C2 17.52 6.48 22 12 22C17.52 22 22 17.52 22 12C22 6.48 17.52 2 12 2ZM12 20C7.59 20 4 16.41 4 12C4 7.59 7.59 4 12 4C16.41 4 20 7.59 20 12C20 16.41 16.41 20 12 20Z" fill="currentColor" />
</svg>
