<svg width="24" height="24" viewBox="0 0 24 24" fill="none" xmlns="http://www.w3.org/2000/svg">
<path d="M7.92007 7.54C7.12007 7.2 6.78007 6.21 7.26007 5.49C8.23007 4.05 9.85007 3 11.9901 3C14.3401 3 15.9501 4.07 16.7701 5.41C17.4701 6.56 17.8801 8.71 16.8001 10.31C15.6001 12.08 14.4501 12.62 13.8301 13.76C13.6801 14.03 13.5901 14.25 13.5301 14.7C13.4401 15.43 12.8401 16 12.1001 16C11.2301 16 10.5201 15.25 10.6201 14.38C10.6801 13.87 10.8001 13.34 11.0801 12.84C11.8501 11.45 13.3301 10.63 14.1901 9.4C15.1001 8.11 14.5901 5.7 12.0101 5.7C10.8401 5.7 10.0801 6.31 9.61007 7.04C9.26007 7.61 8.53007 7.79 7.92007 7.54ZM14.0001 20C14.0001 21.1 13.1001 22 12.0001 22C10.9001 22 10.0001 21.1 10.0001 20C10.0001 18.9 10.9001 18 12.0001 18C13.1001 18 14.0001 18.9 14.0001 20Z" fill="currentColor" />
</svg>
