<svg width="24" height="24" viewBox="0 0 24 24" fill="none" xmlns="http://www.w3.org/2000/svg">
<path fill-rule="evenodd" clip-rule="evenodd" d="M21.2071 2.79289C21.5976 3.18342 21.5976 3.81658 21.2071 4.20711L4.20711 21.2071C3.81658 21.5976 3.18342 21.5976 2.79289 21.2071C2.40237 20.8166 2.40237 20.1834 2.79289 19.7929L19.7929 2.79289C20.1834 2.40237 20.8166 2.40237 21.2071 2.79289Z" fill="currentColor" />
<path fill-rule="evenodd" clip-rule="evenodd" d="M21.2071 9.79289C21.5976 10.1834 21.5976 10.8166 21.2071 11.2071L11.2071 21.2071C10.8166 21.5976 10.1834 21.5976 9.79289 21.2071C9.40237 20.8166 9.40237 20.1834 9.79289 19.7929L19.7929 9.79289C20.1834 9.40237 20.8166 9.40237 21.2071 9.79289Z" fill="currentColor" />
</svg>
