<svg width="24" height="24" viewBox="0 0 24 24" fill="none" xmlns="http://www.w3.org/2000/svg">
<path d="M20 18C20 17.45 20.45 17 21 17C21.55 17 22 17.45 22 18V21C22 21.55 21.55 22 21 22H18C17.45 22 17 21.55 17 21C17 20.45 17.45 20 18 20H20V18Z" fill="currentColor" />
<path d="M6 4H4V6C4 6.55 3.55 7 3 7C2.45 7 2 6.55 2 6V3C2 2.45 2.45 2 3 2H6C6.55 2 7 2.45 7 3C7 3.55 6.55 4 6 4Z" fill="currentColor" />
<path d="M4 18C4 17.45 3.55 17 3 17C2.45 17 2 17.45 2 18V21C2 21.55 2.45 22 3 22H6C6.55 22 7 21.55 7 21C7 20.45 6.55 20 6 20H4V18Z" fill="currentColor" />
<path d="M18 4H20V6C20 6.55 20.45 7 21 7C21.55 7 22 6.55 22 6V3C22 2.45 21.55 2 21 2H18C17.45 2 17 2.45 17 3C17 3.55 17.45 4 18 4Z" fill="currentColor" />
<path fill-rule="evenodd" clip-rule="evenodd" d="M8.74837 5.19966C9.36124 4.96032 10.0812 4.89864 10.7342 5.22519C11.9808 5.84852 12.188 7.17501 12.0432 8.40619C11.8948 9.6669 11.3496 11.2626 10.5447 13.1139C10.279 13.7251 9.90552 14.3647 9.48887 14.9846C9.71208 14.9119 9.95319 14.8048 10.2066 14.6606C10.7704 14.3398 11.3154 13.8797 11.7407 13.3836C12.1193 12.9419 12.5684 12.063 12.9492 11.1906C13.1308 10.7743 13.2838 10.3909 13.3913 10.1113C13.445 9.97187 13.4871 9.85901 13.5154 9.78175C13.5296 9.74313 13.5404 9.71346 13.5475 9.69387L13.5552 9.67218L13.557 9.66729C13.7302 9.17788 14.2495 8.9015 14.7519 9.0323C15.2543 9.16309 15.5731 9.65661 15.4857 10.1684C15.4857 10.1684 15.4857 10.1683 15.4857 10.1684L15.4853 10.1707L15.4837 10.1805L15.4769 10.2215C15.4709 10.258 15.4622 10.3123 15.4514 10.3816C15.4298 10.5205 15.4003 10.7187 15.3688 10.9538C15.3053 11.4276 15.236 12.0362 15.2061 12.6056C15.2033 12.6577 15.201 12.7085 15.199 12.758C15.3256 12.6303 15.4515 12.4998 15.5773 12.3697C15.7221 12.2197 15.8665 12.0701 16.011 11.9256C16.1411 11.7955 16.2774 11.6643 16.4097 11.5525C16.5264 11.4537 16.7072 11.3109 16.9219 11.2189C17.1138 11.1367 17.7063 10.9546 18.1904 11.4387C18.3812 11.6295 18.4611 11.8464 18.4971 11.9893C18.5341 12.1363 18.5426 12.2754 18.5426 12.3854C18.5426 12.4733 18.5426 12.5653 18.5432 12.6596C19.5309 11.9962 20.6893 11.9985 21.4065 11.9999C21.4386 12 21.4698 12 21.5 12C22.0523 12 22.5 12.4478 22.5 13C22.5 13.5523 22.0523 14 21.5 14C20.427 14 19.7664 14.055 19.3319 14.6344C19.1799 14.8371 19.0048 15.0349 18.801 15.1861C18.6037 15.3324 18.2713 15.5131 17.8495 15.4662C17.4007 15.4163 17.1152 15.1411 16.9652 14.9271C16.8224 14.7233 16.7462 14.5028 16.7015 14.3387C16.6835 14.2728 16.6676 14.2037 16.6534 14.1321C16.3003 14.4874 15.899 14.8681 15.5043 15.1641C15.2299 15.3699 14.6686 15.6655 14.0533 15.3513C13.6575 15.1491 13.4692 14.7943 13.3767 14.5419C13.3377 14.5914 13.2986 14.6392 13.2593 14.6851C12.6952 15.3432 11.9743 15.9559 11.1956 16.3989C10.4288 16.8352 9.52206 17.1538 8.60992 17.0963C8.38913 17.0824 8.17309 17.0466 7.96406 16.9882C7.47033 17.5729 7.01868 18.0576 6.70711 18.3691C6.31658 18.7597 5.68342 18.7597 5.29289 18.3691C4.90237 17.9786 4.90237 17.3455 5.29289 16.9549C5.56325 16.6846 5.92945 16.2907 6.32705 15.826C6.27024 15.7479 6.21554 15.6662 6.16306 15.5806C5.60199 14.6661 5.32955 13.3812 5.32955 11.7255C5.32955 9.43253 6.05627 7.62723 7.05397 6.46193C7.54942 5.88324 8.13187 5.44041 8.74837 5.19966ZM7.66406 14.1105C8.08719 13.505 8.46372 12.8843 8.71058 12.3165C9.50034 10.5 9.94444 9.12766 10.0569 8.17243C10.1728 7.18769 9.91236 7.05031 9.83974 7.014C9.8332 7.01073 9.72871 6.96391 9.47588 7.06264C9.22669 7.15996 8.90222 7.37838 8.57321 7.76266C7.92197 8.5233 7.32955 9.85077 7.32955 11.7255C7.32955 12.839 7.47168 13.6018 7.66406 14.1105ZM15.2624 13.874C15.262 13.8748 15.2585 13.8672 15.2529 13.8487C15.26 13.8639 15.2628 13.8732 15.2624 13.874Z" fill="currentColor" />
</svg>
