<svg width="24" height="24" viewBox="0 0 24 24" fill="none" xmlns="http://www.w3.org/2000/svg">
<path fill-rule="evenodd" clip-rule="evenodd" d="M12 2C6.47715 2 2 6.47715 2 12C2 17.5228 6.47715 22 12 22C17.5228 22 22 17.5228 22 12C22 6.47715 17.5228 2 12 2ZM11.5357 4.01325C11.6894 4.00446 11.8442 4 12 4C12.1558 4 12.3106 4.00445 12.4642 4.01324C13.0917 5.01957 13.6168 6.549 13.92 8.40893C13.2936 8.46934 12.6495 8.50019 11.9998 8.50019C11.3503 8.50019 10.7063 8.46935 10.08 8.40895C10.3831 6.54902 10.9083 5.01958 11.5357 4.01325ZM9.04136 4.56491C7.63999 5.12304 6.43357 6.0659 5.55255 7.26303C6.28115 7.6179 7.14966 7.90098 8.10307 8.10631C8.31487 6.79844 8.6328 5.59712 9.04136 4.56491ZM4.5768 9.01167C4.20478 9.93494 4 10.9436 4 12C4 13.0564 4.20478 14.0651 4.5768 14.9883C5.54179 14.5046 6.66798 14.1441 7.86977 13.8992C7.82366 13.2792 7.79993 12.6444 7.79993 12.0001C7.79993 11.3557 7.82366 10.7208 7.86978 10.1008C6.66798 9.85587 5.5418 9.4954 4.5768 9.01167ZM5.55255 16.737C6.43355 17.9341 7.63995 18.8769 9.04129 19.4351C8.63274 18.4028 8.31484 17.2015 8.10304 15.8937C7.14965 16.099 6.28115 16.3821 5.55255 16.737ZM11.5356 19.9867C11.6893 19.9955 11.8441 20 12 20C12.1558 20 12.3106 19.9955 12.4643 19.9868C13.0917 18.9804 13.6169 17.451 13.92 15.5911C13.2936 15.5307 12.6495 15.4998 11.9998 15.4998C11.3502 15.4998 10.7063 15.5307 10.0799 15.591C10.383 17.451 10.9082 18.9804 11.5356 19.9867ZM14.9586 19.4351C16.3599 18.877 17.5662 17.9343 18.4472 16.7373C17.7188 16.3823 16.8503 16.0992 15.8969 15.8938C15.6851 17.2016 15.3672 18.4029 14.9586 19.4351ZM19.4231 14.9887C19.7952 14.0653 20 13.0566 20 12C20 10.9434 19.7952 9.93467 19.4231 9.01131C18.4582 9.49518 17.332 9.85574 16.1301 10.1008C16.1763 10.7208 16.2 11.3557 16.2 12.0001C16.2 12.6444 16.1763 13.2793 16.1301 13.8992C17.332 14.1443 18.4582 14.5048 19.4231 14.9887ZM18.4472 7.26272C17.5662 6.06572 16.3598 5.12295 14.9585 4.56487C15.3671 5.59707 15.685 6.79838 15.8968 8.10622C16.8503 7.90084 17.7188 7.61769 18.4472 7.26272ZM14.2 12.0001C14.2 12.5494 14.1815 13.085 14.1463 13.6037C13.4352 13.534 12.7145 13.4998 11.9998 13.4998C11.2852 13.4998 10.5647 13.534 9.85362 13.6037C9.81846 13.085 9.79993 12.5494 9.79993 12.0001C9.79993 11.4507 9.81847 10.9151 9.85363 10.3963C10.5647 10.466 11.2852 10.5002 11.9998 10.5002C12.7145 10.5002 13.4352 10.466 14.1463 10.3963C14.1815 10.9151 14.2 11.4507 14.2 12.0001Z" fill="currentColor" />
</svg>
