<svg width="24" height="24" viewBox="0 0 24 24" fill="none" xmlns="http://www.w3.org/2000/svg">
<path d="M11 8C11 7.45 11.45 7 12 7C12.55 7 13 7.45 13 8V15L11 17V8ZM16 9C15.45 9 15 9.45 15 10V13L17 11V10C17 9.45 16.55 9 16 9ZM7 12V17H9V12C9 11.45 8.55 11 8 11C7.45 11 7 11.45 7 12Z" fill="currentColor" />
<path d="M20 8.5C19.45 8.5 19 8.05 19 7.5V5H5V19H8C8.55 19 9 19.45 9 20C9 20.55 8.55 21 8 21H5C3.9 21 3 20.1 3 19V5C3 3.9 3.9 3 5 3H19C20.1 3 21 3.9 21 5V7.5C21 8.05 20.55 8.5 20 8.5Z" fill="currentColor" />
<path d="M12 19.07V20.5C12 20.78 12.22 21 12.5 21H13.9C14.03 21 14.16 20.95 14.25 20.85L20.08 15.02L17.96 12.9L12.15 18.71C12.05 18.81 12 18.94 12 19.07Z" fill="currentColor" />
<path d="M21.85 12.56L20.44 11.15C20.24 10.95 19.93 10.95 19.73 11.15L18.67 12.21L20.79 14.33L21.85 13.27C22.05 13.07 22.05 12.76 21.85 12.56Z" fill="currentColor" />
</svg>
