<svg width="24" height="24" viewBox="0 0 24 24" fill="none" xmlns="http://www.w3.org/2000/svg">
<path d="M11 11H9C8.45 11 8 11.45 8 12C8 12.55 8.45 13 9 13H11V15C11 15.55 11.45 16 12 16C12.55 16 13 15.55 13 15V13H15C15.55 13 16 12.55 16 12C16 11.45 15.55 11 15 11H13V8.99999C13 8.44999 12.55 7.99999 12 7.99999C11.45 7.99999 11 8.44999 11 8.99999V11ZM12 19C8.13 19 5 15.87 5 12C5 8.46999 7.61 5.56999 11 5.07999V2.04999C5.94 2.54999 2 6.80999 2 12C2 17.52 6.47 22 11.99 22C15.3 22 18.23 20.39 20.05 17.91L17.45 16.38C16.17 17.98 14.21 19 12 19ZM13 2.04999V5.07999C16.39 5.56999 19 8.46999 19 12C19 12.9 18.82 13.75 18.52 14.54L21.12 16.07C21.68 14.83 22 13.45 22 12C22 6.81999 18.05 2.54999 13 2.04999Z" fill="currentColor" />
</svg>
