<svg width="24" height="24" viewBox="0 0 24 24" fill="none" xmlns="http://www.w3.org/2000/svg">
<path d="M12 4C9.85262 4 7.90464 4.84474 6.46679 6.22213C6.06797 6.60418 5.43495 6.59058 5.0529 6.19176C4.67085 5.79294 4.68445 5.15992 5.08327 4.77787C6.87848 3.05816 9.31671 2 12 2C14.6833 2 17.1215 3.05816 18.9167 4.77787C19.3155 5.15992 19.3291 5.79294 18.9471 6.19176C18.565 6.59058 17.932 6.60418 17.5332 6.22213C16.0954 4.84474 14.1474 4 12 4Z" fill="currentColor" />
<path d="M4.4442 9.36386C4.62611 8.8424 4.35085 8.2722 3.82938 8.09029C3.30792 7.90837 2.73772 8.18363 2.5558 8.7051C2.19544 9.73811 2 10.8473 2 12C2 16.7603 5.32525 20.7416 9.77871 21.7522C10.3173 21.8744 10.853 21.5368 10.9752 20.9982C11.0974 20.4597 10.7599 19.924 10.2213 19.8018C6.65879 18.9934 4 15.806 4 12C4 11.0746 4.1567 10.188 4.4442 9.36386Z" fill="currentColor" />
<path d="M21.4442 8.70513C21.2623 8.18367 20.6921 7.9084 20.1706 8.09032C19.6491 8.27223 19.3739 8.84243 19.5558 9.3639C19.8433 10.188 20 11.0746 20 12C20 15.806 17.3412 18.9934 13.7787 19.8018C13.2401 19.924 12.9026 20.4597 13.0248 20.9983C13.147 21.5369 13.6827 21.8744 14.2213 21.7522C18.6747 20.7417 22 16.7604 22 12C22 10.8473 21.8045 9.73814 21.4442 8.70513Z" fill="currentColor" />
<path d="M14.5 8C14.5 7.44772 14.9477 7 15.5 7C16.0523 7 16.5 7.44772 16.5 8V17H14.5V8Z" fill="currentColor" />
<path d="M12 9C11.4477 9 11 9.44772 11 10V17H13V10C13 9.44772 12.5523 9 12 9Z" fill="currentColor" />
<path d="M7.5 13C7.5 12.4477 7.94772 12 8.5 12C9.05228 12 9.5 12.4477 9.5 13L9.5 17H7.5L7.5 13Z" fill="currentColor" />
</svg>
