<svg width="24" height="24" viewBox="0 0 24 24" fill="none" xmlns="http://www.w3.org/2000/svg">
<path fill-rule="evenodd" clip-rule="evenodd" d="M8.07339 4.18712C4.34013 5.77372 2.59991 10.0863 4.18651 13.8196C5.77311 17.5528 10.0857 19.2931 13.819 17.7065C14.4216 17.4504 14.9722 17.1232 15.4654 16.739L19.8647 21.139C20.2162 21.4905 20.786 21.4905 21.1375 21.1391C21.489 20.7876 21.4891 20.2178 21.1376 19.8663L16.7379 15.4659C18.3235 13.4299 18.7868 10.6175 17.7059 8.074C16.1193 4.34074 11.8067 2.60052 8.07339 4.18712ZM14.9089 14.8273C16.4281 13.2745 16.9519 10.9021 16.0493 8.77804C14.8515 5.95969 11.5958 4.64595 8.77743 5.84372C5.95908 7.04149 4.64534 10.2972 5.84311 13.1155C7.04088 15.9339 10.2966 17.2476 13.1149 16.0499C13.7712 15.771 14.3458 15.3805 14.8262 14.91C14.8391 14.8953 14.8525 14.881 14.8664 14.8671C14.8802 14.8533 14.8944 14.84 14.9089 14.8273Z" fill="currentColor" />
</svg>
