<svg width="24" height="24" viewBox="0 0 24 24" fill="none" xmlns="http://www.w3.org/2000/svg">
<path d="M18.8939 19.1434C19.6717 18.3655 19.6717 17.0927 18.8939 16.3149L16.0655 19.1434C16.8433 19.9212 18.109 19.9282 18.8939 19.1434Z" fill="currentColor" />
<path d="M18.8939 10.658L15.3584 7.12249C13.1876 4.95167 10.2106 4.29406 7.70749 5.83556L7.22666 5.35472C6.63976 4.76783 5.69223 4.76783 5.10534 5.35472C4.51844 5.94162 4.51844 6.88915 5.10534 7.47605L5.58617 7.95688C4.0376 10.4671 4.69521 13.4299 6.8731 15.6078L10.4086 19.1433L10.4086 20.9676C10.4086 21.8586 11.4834 22.3111 12.1128 21.6818L21.4254 12.3692C22.0547 11.7399 21.6092 10.658 20.7183 10.658H18.8939Z" fill="currentColor" />
</svg>
